<svg width="521" height="521" xmlns="http://www.w3.org/2000/svg" xmlns:xlink="http://www.w3.org/1999/xlink"><defs><filter x="-3.2%" y="-2.8%" width="106.4%" height="106.4%" filterUnits="objectBoundingBox" id="a"><feOffset dy="2" in="SourceAlpha" result="shadowOffsetOuter1"/><feGaussianBlur stdDeviation="5" in="shadowOffsetOuter1" result="shadowBlurOuter1"/><feColorMatrix values="0 0 0 0 0 0 0 0 0 0.156862745 0 0 0 0 0.333333333 0 0 0 0.1 0" in="shadowBlurOuter1"/></filter><circle id="b" cx="250.5" cy="250.5" r="250.5"/></defs><g fill="none" fill-rule="evenodd"><g transform="translate(10 8)"><use fill="#000" filter="url(#a)" xlink:href="#b"/><use fill="#FFF" xlink:href="#b"/></g><path d="M480.98 254.938l-.487.335c.51 3.434.422 6.895.474 10.356-.218.154-.464.325-.657.46-.541-.433-.541-.433-4.836 3.88-2.6-.202-5.414 2.226-7.809-.585-1.35.833-1.617.845-2.894.912-.72-.796-1.307-1.372-1.806-1.7.437-2.242.982-4.012 1.646-4.337.447-1.976 1.868-7.968 3.295-10.504.35.194.71.39 1.066.579.47 1.385 1.017 2.74 1.408 4.148.743.03.856.034 1.865-.052.129-2.055.22-3.51.329-4.619.303-.885.6-1.778 1.614-2.197 1.032 1.458 1.032 1.458 2.229 1.868 1.81-3.198 1.81-3.198 3.897-5.676.162 2.586.162 2.586.112 3.806.002.025.006.046.252-.81.062-.558.102-.947.129-1.256-.075 1.843-.445 3.674-.345 5.525.214-.14.422-.281.634-.423l-.116.29zm-.231-10.86c0 1.916.014 3.66.014 3.678-.177-1.225-.1-2.45-.014-3.678zm-19.413 24.614c-.903 1.069-1.576 4.234-2.834 10.148-.618.725-1.532 1.674-2.39 2.078-.332-.33-.332-.33-6.876-1.31l-.004.003-.006.002-.004.004h-.007l-.01.004-.387.042c-.063-.665-.063-.665-1-2.928-.99-.385-2.073-.506-2.997-1.07-6.11.35-6.11.35-8.236-1.387-.235.206-.547.479-.78.687-2.468-1.706.836-4.165.968-6.293a2.696 2.696 0 00-.015-.136l-.012-.129-.013-.114-.012-.109-.009-.093-.008-.086-.008-.077-.009-.064c-1.548-2.526-1.679-2.751-1.194-4.392.414.112.597.18 1.21.527 3.95 2.21 4.483 1.863 4.911 1.584.219-.141.294-.693.277-.783-.116-.664-.618-1.172-.74-1.834-.157-.848.124-1.65.28-2.466.641 2.393 2.2 4.698 3.65 5.74l.645-.109c.081-.162.185-.375.266-.535.319.806.541 1.653.926 2.438-1.011 1.477-1.011 1.477-1 1.514.43 1.53 2.051 2.283 2.498 3.8.054.184.17.411.244.586.164.067.38.158.545.225.645-1.726-.244-3.971 1.773-5.231.303.22.611.65.747 1 1.523-3.605 5.786-6.423 5.826-6.446 1.306.52 1.306.52 1.793.456.27-.854.254-1.782.645-2.607 1.47.414 1.602 3.896 1.347 7.361zm-25.962-7.03c.002-.002.094-.058.491.19-.01.233-.014.272-.243 1.08l-.529-.858-.091.02c.104-.161.218-.311.372-.432zm8.444-12.486a8.046 8.046 0 00-.404.712c.038-.169.075-.348.12-.548.086-.052.184-.106.284-.164zm-2.824-3.611a16.698 16.698 0 01-.47-2.018c-.994.225-2.02.235-3.009.498-8.662-9.625-8.662-9.625-8.857-12.478.857-.583 1.28-1.568 2.055-2.224.26.15.608.347.868.495.217 1.714.633 1.808 1.746 2.06.202-.217.472-.506.678-.72.277.1.647.235.926.334l.15.97c2.041.732 2.357 3.193 4.166 4.155.278-.102.647-.235.923-.335 1.575 1.258 3.56 1.851 5.106 3.155.852.2.852.2 2.807 2.474.394.685.533 1.412.602 2.151-.587.785-2.426 2.514-3.334 3.353-1.92-1.277-4.323-1.864-4.357-1.87zM316.278 405.753a8.497 8.497 0 01-.406-.267c.216-.487.412-.837.545-.956a7.234 7.234 0 00-.14 1.177v.046zm-45.543 60.134c-.084.117-.608.39-.668.296-.013-.017-.013-.02.008-.119-.081.034-.716.721-.757.91-.017.088-.714.48-.974.6-.054-.383-.094-.66.108-.877l.058-.052a.217.217 0 01.104-.058 6.76 6.76 0 00.68-.302c.4-.231.488-.725.84-.997.078-.063.18-.086.264-.14.064-.044.116-.087.287-.233.11-.102.279-.254.337-.22l.02.122c0 .008-.26 1-.307 1.07zM132.447 97.97c-.027-1.143.298-1.386.908-1.434.772-.23 1.569-.352 2.363-.48-.849.52-1.612 1.236-2.675 1.267a4.275 4.275 0 00-.596.647zm51.913 39.981c-.52 1.258-1.03 2.524-1.54 3.79l-.015-.004c.518-1.266 1.034-2.528 1.555-3.786zM405.3 256.266l-.034.02c-.164-.065-.22-.088-.247.087a5.321 5.321 0 01-.435-1.046c.204-.15.4-.308.59-.47.103.25.221.751.221.756.025.225-.106.429-.096.653zm-74.588-149.58c.297-.439.66-.503 1.62-.67 1.053-.181 2.279-1.304 2.152-1.666-.037-.108-1.615-1.158-3.044-.866l-.44.023c-.128-.06-.299-.144-.424-.209l.021-.235c1.086-.07 5.248.537 6.96 2.457.194.288.292.463.393.64.59.779 1.018 1.164 1.334.674 1.532.642 1.684.704 2.096.559-.188.462-.325.93-.188 1.466.158.072.269.208.342.391-.098.04-.202.085-.296.102-.97.169-1.725-.545-2.63-.641a65.603 65.603 0 00-2.077-.173c-2.938 2.186-3.347 2.189-3.4 2.166-.139.133-.397.38-1.177.068-.048-.04-.048-.037-.048-.037h.006l.01-.002h.007a39.422 39.422 0 011.594-.477c.21-.931.21-.931 1.194-.912.173-.208.246-.292.02-1.154l.446-.196c.839-.772.839-.833.837-1.597-1.492-.93-1.492-.93-3.762.163l-.643 1.999.048.25c.135.07.314.16.451.22-.61.288-1.24.009-1.858.06l.456-2.402zm10.387-.647c.064.002.147.006.212.012l.36.53.023.03a9.173 9.173 0 01-.204.517c-.131-.364-.568-.627-.391-1.089zm.672-1.647c.085.229.125.35.133.568l-.527-.295a.653.653 0 01.396-.165l-.002-.108zm-96.7-35.319c-.008 0-1.013.382-1.163.504l-.031.02-.009-.01c-.006-.22.71-.58.716-.584.296-.125.337-.09.508.064l-.021.006zm-10.169-11.38c.025-.16.05-.333.077-.531.81-.244 1.24-.352 1.671-.21-.976.293-1.485.554-1.748.74zm-6.943 4.069l-.058-.058c.118-.296.179-.446.152-.515l.512-.148c.095.03.191.059.272.12-.12.445-.799.586-.878.601zm271.764 195.642c-.02-2.7-.035-4.284-.054-5.454a227.12 227.12 0 00-.127-4.353l-.002-.014c-.05-1.266-.127-2.88-.204-4.236-.013-.208-.025-.427-.042-.664-.01-.19-.02-.369-.031-.544-.09-1.368-.214-3.015-.304-4.294v-.006a512.999 512.999 0 00-.915-9.084v-.01l-.004-.033a215.143 215.143 0 00-.61-4.705 41.71 41.71 0 00-.1-.66c-.027-.216-.056-.418-.083-.608a220.466 220.466 0 00-.654-4.204 210.596 210.596 0 00-.737-4.213c-.03-.18-.068-.367-.107-.569a139.447 139.447 0 00-.937-4.766l-.006-.034c-.28-1.34-.674-3.071-.976-4.446l-.418-1.749a184.597 184.597 0 00-.78-3.234 253.266 253.266 0 00-1.107-4.198c-.042-.158-.09-.323-.138-.496l-.17-.64a232.61 232.61 0 00-1.167-4.039c-.113-.379-.238-.777-.365-1.185a530.7 530.7 0 00-1.277-4.098c-.39-1.198-.772-2.345-1.134-3.41-.06-.182-.127-.376-.198-.582a141.306 141.306 0 00-1.64-4.59c-.033-.09-.066-.177-.095-.264-.576-1.516-1.003-2.641-1.342-3.526l-.025-.065a10.065 10.065 0 01-.117-.312l-.06-.15-.046-.123c-.043-.116-.087-.227-.129-.335v-.002c-.058-.146-.11-.287-.164-.42-.256-.65-.454-1.159-.656-1.654a178.65 178.65 0 00-.597-1.454c-.104-.25-.218-.518-.343-.816-.096-.23-.183-.444-.264-.64-.47-1.12-.912-2.146-1.317-3.08-.107-.24-.221-.505-.35-.795l-.02-.041a201.705 201.705 0 00-1.932-4.255c-.108-.24-.21-.46-.304-.662-.382-.82-.848-1.8-1.39-2.911-.11-.223-.226-.467-.357-.733-.479-.977-.797-1.623-1.122-2.27-.191-.377-.4-.785-.643-1.26-.116-.22-.24-.456-.376-.719a58.355 58.355 0 00-.394-.768c-.233-.456-.43-.835-.62-1.2-.264-.5-.53-.995-.884-1.645-.065-.122-.135-.247-.208-.38a5.401 5.401 0 00-.098-.186c-.102-.19-.198-.369-.29-.537-.526-.964-1.11-2.02-1.753-3.157-.077-.136-.16-.28-.248-.43-.965-1.724-1.338-2.348-2.39-4.12l-.065-.107a260.428 260.428 0 00-2.262-3.713c-.054-.087-.11-.175-.17-.268-.16-.26-.308-.502-.452-.73-.618-.988-1.198-1.9-1.694-2.66-.12-.186-.245-.373-.38-.577l-.104-.157-.013-.022c-.69-1.037-1.488-2.22-2.293-3.403a379.176 379.176 0 00-2.349-3.43l-.008-.012-.081-.117-.514-.725c-.036-.05-.071-.1-.107-.148-.69-.968-1.475-2.049-2.328-3.204a50.285 50.285 0 00-.366-.488c-.09-.12-.173-.237-.256-.348a218.709 218.709 0 00-2.663-3.5c-.358-.452-.685-.864-.985-1.24a530.315 530.315 0 00-1.804-2.275c-.08-.1-.166-.206-.258-.315a236.671 236.671 0 00-3.722-4.487 239.95 239.95 0 00-1.977-2.285l-.44-.493c-.055-.063-.109-.123-.159-.184-.76-.853-1.685-1.878-3.056-3.398-.92-1.002-2-2.15-3.095-3.299-.243-.258-.468-.493-.667-.706-.88-.916-1.877-1.936-2.957-3.021l-.019-.017a198.017 198.017 0 00-2.436-2.416c-.302-.29-.635-.608-1.035-.989l-.074-.073c-.808-.766-1.867-1.764-3.5-3.302-.206-.19-.393-.365-.572-.527a239.25 239.25 0 00-3.045-2.74l-.054-.047c-.141-.127-.276-.25-.405-.364-1.043-.914-2.325-2.012-3.31-2.865a31.982 31.982 0 00-3.806-3.157l-.735-.606a277.905 277.905 0 00-2.667-2.12l-.485-.377-2.243-1.727a179.58 179.58 0 00-1.66-1.235l-.005-.004c-.389-.287-.788-.583-1.188-.876l-.622-.456c.158.114.318.222.478.341-.16-.119-.324-.229-.484-.346l-.009-.006a248.839 248.839 0 00-2.147-1.568l-.826-.579-.468-.327c-.724-.506-1.613-1.122-2.74-1.907-.082-.057-.167-.113-.254-.171-1.68-1.16-2.347-1.595-4.205-2.801-.475-.3-.904-.57-1.31-.829a479.926 479.926 0 00-1.907-1.195l-.252-.156c-1.04-.648-2.095-1.3-3.1-1.914-.19-.115-.387-.231-.593-.356-.541-.33-1.072-.65-1.565-.944a270 270 0 00-3.541-2.024c-.725-.416-1.65-.933-2.262-1.272-.09-.048-.181-.1-.27-.15.582.325 1.202.673 1.84 1.033a195.297 195.297 0 00-3.85-2.108c.55.3 1.104.6 1.658.904-6.434-3.473-17.84-8.667-17.924-8.7-.222-.083-.534-.142-.768-.194.989.525 2.04.914 3.043 1.406-.003 0-1.114-.404-2.348-.842l-.004-.002-.004-.002H360l-.004-.002h-.002l-.004-.002-.003-.002c-.002 0-.002 0 .16.108.8.4 1.626.752 2.408 1.187-5.643-2.25-5.69-2.238-6.527-2.043.354.18.799.477 1.105.734l-.662-.188c1.323.941 1.444.952 2.245 1.023.225.462.479.987 8.82 4.481.071.027 8.419 3.82 13.217 6.807-1.96-.932-3.92-1.876-5.882-2.813-2.69-1.162-2.69-1.162-8.97-3.621.272.262.583.668.772.995-1.224-1.212-3.485-1.618-7.992-2.43l.564.275c-.048.181-.115.42-.16.602-13.336-4.03-15.227-4.246-15.85-4.317.142.148.331.35.473.502-.17.077-.398.18-.568.26.643.535 1.184 1.183 1.835 1.71l-.601.11c1.09 1.13 1.714 1.03 2.264.941.137.125.322.29.457.415-.53.989-.53.989-.628 1.747-2.99 1.901-4.524-2.18-6.97-2.807-.046.183-.107.429-.15.612-2.414.552-4.798-2.77-7.141-.348-.181.002-.419.002-.6-.002l-.006.002-.006-.002h-.006l-.007-.002h-.018c-.002 0-.004-.002-.454.012-.327-.195-.66-.645-.764-1.012a6.917 6.917 0 01-1.217-.222c.215.274.429.556.641.837a1.176 1.176 0 00-.316-.048c-.269-.313-.535-.625-.812-.933-.422-.067-1.028-.013-1.415.173-.7-.64-1.352-1.34-2.089-1.941.419.042.974.135 1.384.233-1.165-.95-2.684-.727-3.989-1.214l-.164-.666-.651-.209c-1.16-.13-2.318.155-3.477-.014-5.79-.208-5.79-.208-6.66-.03l-.273.236c-1.985-.558-2.158-.54-5.019-.22-.116.385-.077.968.085 1.334.385-.081.95.006 1.293.194-1.426-.146-1.426-.146-2.07.285-3-.66-3.494.48-3.759 1.091-.018.004-4.303-.406-5.786-.841l-.7-.087-.497-.117c-2.854-.123-2.854-.123-3.146-.117-.253-.014-.507-.025-.76-.037-.12-.006-.238-.01-.359-.017-.82-.1-.82-.1-4.913 1.258-.016.21-.041.49-.062.7.302.302.693.712.98 1.024-1.036.383-2.29.115-3.144 1.054l.11.677-.649.25c.296-1.21.056-1.764-2.145-1.864l-.104.008-.604.05-.967-.152-.676.063-.593.06c-.479-.1-1.174-.133-1.632.044l-.984.104-1.063-.019-.847.013c-.99-.052-1.987.087-2.975-.059-.647-.03-.647-.03-2.096-.7-.526.694-.526.694-1.154 1.773-1.981-.136-3.891 1.993-5.924.183.882-.975.955-1.04 1.635-1.643a86.35 86.35 0 00-.233-.675c-2.863-.937-5.622.619-8.458.363l-.025.002h-.067l-.1.004-.118.002-.131.002-.131.002-.12.004c-.034 0-.068.002-.519-.029-4.58.258-4.58.258-26.022 8.357a8.07 8.07 0 01-.499 1.343c-.212.292-.493.681-.705.97a8.75 8.75 0 00-1.421.007c.237-.356.499-.867.642-1.266l.454-.619c-5.152.208-5.152.208-12.218 3.89a4.82 4.82 0 001.371.092c.17.402.5.895.785 1.226 1.219.075 2.445-.073 3.664.052-.308.315-.626.846-.735 1.27.15.113.352.261.502.376-.156.154-.366.358-.522.51l.632.287-.59.412c.413.065.992.02 1.393-.104.042.048.092.104.138.16-.127.184-.244.378-.256.45.027.023.064.057.256-.022.112-.048.129-.05.154-.023.024.029.004.143-.023.241-.034.121-.042.15-.044.18-.006.087.183.324.314.285.052-.013.518-.277.884-.627.007-.004.59-.59.593-.664l-.022.014c.104-.258.133-.383.135-.454 1.04-.219 3.004-.758 5.079-1.351-.13.093-.318.222-.614.422-.03.231-.123.596-.41.419-.468-.29-1.067.566-1.071.575.316.075.618.206.94.252.027.09.002.177.004.264.346.025.346.025.616.25.287-.119.502-.385.832-.412-.595.452-1.335 1.014-2.524.416.096-.362.096-.362.06-.406-.542-.654-1.7 2.216-1.71 2.243.673.291 1.659-.098 1.85-.181l.073.046c-.383.808-1.525.308-1.536.3-.971.416-.711 1.457-.626 1.799.065.002.76-.248 1.28-.51a3.298 3.298 0 01-.527.63c.013 0 1.917-.547 2.173-.86.106.073.3.388.32.442-.062.131-.193.22-.21.375.248.077.468-.084.705-.084l.004.082c-.137.125-.34.318-1.136.245a.659.659 0 00-.058-.15c-.002.005-.243.352-.31.509.092.045.092.045.25.037 1.323-.065 1.323-.065 1.375.012-.264.209-.88.363-.886.363-.019.002-2.073-.117-2.227-.215-.31.231-.31.231-.403.26l-.088-.135c-.345-.054-.345-.054-.422-.191-.612 1.357-.15 1.701-.131 1.716.077-.02.077-.02.327-.134l.07.046c-.11.313-.451.498-.468.862.102.036.102.036 1.026-.062.198.32.198.32.243.352-.097.214-.863.28-1.038.256-.054-.073-.083-.163-.137-.237-1.04.404-.237 1.21.193 1.643-.025.15-.091.287-.08.445.295.18.794-.014.94-.079.412-.185.447-.075.622.452l.079-.01c.24-.336.26-.781.55-1.092.06-.068.453-.3.567-.079.177.342-.104.623-.123.94.479-.013.481-.505.743-.734.098.31.067.654.219.954 1.152.123.924-2.003 2.022-1.533-.02.06-.02.06-.283.402l.046.08c.404-.248.547-.538.603-.646.148-.294.102-.637.24-.937.185-.4.262-.567.815-1.006.121.065.26.044.385.083-.326.508-.961.77-1.13 1.406.04.04.086.094.117.14.564-.215 1.036-.594 1.556-.89.801-.45 1.725-.58 2.553-.968.254-.119.477-.294.73-.414l-.184.018c.072-.043.295-.179.41-.28.014-.011.663-1.454.322-1.61v-.084l-.062-.048c-.202.159-.327.404-.564.52-.1-.18.018-.374-.021-.557-.337-.159-.651.064-.98.054.191-.381.726-.542.686-1.07h-.147c-.017-.398.5-.51.476-.908-.023-.43-.035-.442-.154-.554-.237.108-.28.106-.414.102h-.004l-.002-.002h-.004l-.048-.009c.988-.383 1.011-.418 1.07-.5.12-.177.472-.778-.107-1.174-.135-.092-.998.479-.992.945.006.375-.317.671-.458.702-.356-.595-.356-.595.545-1.668.123-.146.123-.146.135-.273-.193-.058-.206-.297-.376-.38-.204-.097-.443-.007-.65-.107l-.108-.058c.219-.28.56-.956.585-1.123-.073-.029-.073-.033.273-1.53.788-.24 1.288-.394 1.308-.402.28-.117.342-.148.49-1.083l.11.12c1.39-.534 1.39-.534 1.677-.545l-.044.233c-1.51.542-1.51.542-1.637.865.047.05.112.114.16.162.647-.02 1.196-.435 1.845-.456-.713.972-3.046.45-2.777 2.057l.193.136c.13-.031.31-.048.443-.044-.982 2.37.883 1.985.903 1.98.926-.222 1.553-1.01 2.418-1.347l.131.06c-.62.58-1.431.896-2.047 1.481.027.067.06.156.085.22 1.488.567 1.488.567 3.906-.653-.032.37-.354.614-.414.972.006.003.578.107 1.163.125a1.614 1.614 0 00-.32.885c-1.318.48-1.351.604-1.424.931a.918.918 0 01.087.134c-.239.11-.412.208-.553.318-.135-.633-.585-1.78-2.037-1.37-1.011-1.106-2.135.44-2.195 1.022-.152 1.466-.152 1.466.208 1.67.145.086.45.45.46.557.106.93-.227 1.907.295 2.792.29.494.493.456 2.077.152l-.015.23c-.37.312-.967.493-1.773.532.72.675-.195 1.146-.206 1.148-.07.012-.168-.007-.239-.01-.347-.378-.119-.998-.564-1.336-.582-.445-1.327-.35-1.972-.6-.059.04-.136.09-.196.132-1.296-.3-4.511 1.603-4.322 2.863.06.042.146.096.208.138-.033.066-.074.152-.11.218.046.059.11.136.156.194.287-.07.431-.104 1.107-.63.048.051.108.118.156.166a5.288 5.288 0 00-.245.545c1.067 1.16 1.7-1.528 2.923-1.618-.537.991-.537.991-.543 1.2a.98.98 0 01.25.427c-.629.666-2.006-.113-2.318 1.045.052.046.12.104.173.148.13-.046.324-.063.461-.042-.126.612-.894.727-1.03 1.333.123.056.298.108.431.127l.048.002.019.004.016.002h.017l.015.002.014.002.013.003.01.002c1.621.37 1.677.316 2.216-.207 1.321-1.276 1.321-1.276 1.575-1.336l.146.185c-4.289 4.306-5.202 1.651-5.202 1.618-.008-.714-.452-1.291-.61-1.958-2.236-.456-2.407.369-2.821 2.358.297.073.345.083.637.4-.177.508-.25.718-1.04.476-.846-.258-4.098.298-4.37 2.924.202.223.476.527 1.562-.92.01.525-.742 1.126-.143 1.557.193-.041.522-.108 1.007-.647.083.106.083.106.24.691.715.144.715.144 1.73-.452.002.236-.112.456-.073.694.315.148.985.441 1.024.447.855-.114.855-.114.868-.124.058-.138.114-.325.148-.471.064-.025.15-.06.214-.092.212.288.283.323.52.446.329-.262.479-.681.812-.94a.735.735 0 01-.07.453c.049.135.13.306.209.424.19.013.443-.02.628-.064l.14-.119c.297.458.206 1.085.64 1.485.862-.063 1.863-1.035 1.339-1.51-.003 0-.277-.26.106-.685l.247.1c.167.825.167.825 1.178 1.13l.06.224c-.663.897-.663.897-.697 1.051.23.292.23.292.851.134 1.051-.654 2.3-.908 3.307-1.648l.201.117-.06.277.004.21c1.825-.835 1.785-1.305 1.659-2.703-.05-.031-.12-.073-.171-.106-.385.18-.656.525-1.032.714-.006-.004-.589-.435-.68-.683.584-.402.871-1.101 1.485-1.474.019.004 1.794.064 1.864-1.976.013-.34.013-.34 1.79-.594.5.402 1.562-.073 2.151-.393.059-.123.14-.29.177-.421.023-.083.025-.198.044-.28.118-.486.89-.97.376-1.455.437-.41 1.15-.035 1.553-.537l.073-.302a1.71 1.71 0 01.44-.131c-.2-.319-.461-.594-.621-.937-.342-.104-.342-.104-.625-.446.056-.006.133-.017.192-.023 1.481-.17 1.481-.17 1.679-1.008-.212-.252-.212-.252-1.87-.627-.126-.268-.126-.268.08-.628.577.17 1.072.562 1.692.608l.547-.248c.017.002.666.04 1.228-.1 2.047.82 4.168 1.466 6.27 2.149a2.139 2.139 0 00-.375.229l-.169.198-.12.262-.386.29c-.944.39-.944.39-1.167.227-.222.095-.468.09-.697.16l-.216.183c-.34.234-.34.234-.689.28-.68-.136-.701-.128-1.03.339l-.123.212a2.69 2.69 0 01-.28.21 1.499 1.499 0 01-.273-.185l-.373.14-.191.235-.16.448-.265.27-.101.123c-.075.28-.075.28.534 1.033l-.012.188c.822.6 2.376 1.324 2.384 1.326l.121.013.017-.002.014.002h.019l.02.002.022.002h.02l.021.002c.13.002.291-.096.4-.165l.152.396a2 2 0 00.214.237c-.088.336-.088.336-.063.481.377.086.377.086.458.134.36-.117.566-.508.978-.531.081.118.127.26.208.38.337-.035.689.053 1.014-.105.289.19.289.19 1.217-.735.393.074.83.512 1.117 1.114l-.275.214-.056.031h-.002c-.418.413-.418.413-3.327.242-.383.085-.383.085-.543.185h-.002c-.995 1.052-2.295.109-3.385.525l-.138.1c2.025.115 4.068.2 6.118.273l-.023.027a350.722 350.722 0 01-6.161-.252c-.333.227-.275.368-.163.652.306.297.306.297.398.566l.102.142.247.006c.208.03.208.03 1.005-.398l.138.127-.219.202-.062.338.148.272.118.194c.703.1 1.186.115 1.315.117l.098.1h.058l.023.002h.027l.03.002.028.002c.783.048.783.048.889.377l-.164.243-.462.084-.206-.119-.115.023-.175-.002c-.12.108-.12.108-.755.377l-.18.218-.128.234.156.093c.067.581.067.581.356.983.701.5.701.5.772.633.36.19 2.035.323 2.332.077-.35-.645-.245-.837-.133-1.035.15.107.196.14.446.157.174.547.174.547.324.666l.158-.025c.412-.95.412-.95 1.043-.631l-.054.317c.008.12.027.283.05.404l.016.018h.002c.643.057 1.15-.36 1.74-.497.077-.21.274-.338.37-.538.512-.102.616.446.964.604.03-.027.778-.64.94-1.083.17.002.17.002.864.552 1 .2 1 .2 1.127.186.169.274.28.458 1.06.404.713-.046.713-.046 1.66.674.222.156.222.156.861.075.443.346.443.346.937 1.104l.393.129.401.06c.098.005.227.009.325.013.017.083.037.19.05.273.029.116.07.273.106.387l.05.073h.002c.12.067.24.223.312.341.065.242.058.259-.094.721l.073.435c.335.78.335.78.435.977 1.68.916 1.68.916 2.052 1.95l.218.16c.876.737.876.737 1.068 1.089-.577.47.378 1.988.788 2.638.044.102.042.08.04.05.326.758.326.758.412 1.383.183.4.736.458.847.922.147.635-.142 1.227-.194 1.841l.227-.112c.29.214.322.235.967.206.18.218.18.218.26.737.117 1.501.117 1.501.75 1.653.102.184.127.23 0 .51l-.146-.101-.166.033c-.209.398-.442 1.13-.485 1.274l-.156.332c-.192.274-.419.52-.622.785.014.045.04.106.056.152.676.108.763-.63 1.213-.846.031.088.068.202.098.29-.06.147-.167.335-.244.474l-.285.254c-.426.438-.426.438-.728.571l-.306.14c-1.363.701.22 1.405.24 1.41.378.112.734-.14 1.108-.067.027.046.06.108.083.156.177.033 1.08.19 1.526-.196.584-.506.468-1.351.921-1.92l-.337-.752c-.008-.01-.815-1.122-.605-1.655.048.041.11.094.154.135.004.288.02 1.164 1.186 2.193.183-.144.306-.36.53-.456l.16.083c.011.444-.357.837-.174 1.304.19.042.285.062.63-.152.086.077.196.173.281.25l.025.025c.154.006.362-.01.514-.04l.067.512.376.336c.019 0 .019 0 1.178-.531a.74.74 0 01.362.354 2.72 2.72 0 00-.35.377c.04.147.09.352.13.5-.437.418-.437.418-.54.81.864.51.864.51 2.285 1.703.069.67.069.67.215 1.17l.27.394.119.32-.302.313-.183-.023-.281-.031-.225-.025-.3-.173c-.674-.092-.674-.092-1.071-.479l-.26-.019c-.5-.262-.938-.63-1.47-.837.06.833.155 1.7.25 2.572.812.716.943.704 1.563.648.633.114.633.114.772.208.279-.098.506-.302.79-.385l.203.204.457-.002c.477-.003.926-.223 1.41-.165.093.552.195 1.245.195 1.245-.173.084-.35.292-.452.456l.242.359.074.316-.218.348c-.477.391-.762.629-.493 1.085.077.006.175.012.252.016.588-.016 1.173-.041 1.762-.064-.008.05-.015.102-.02.152l-1.63.08c.185.23.185.23.39.799l.43-.425-.14 1.35c-1.121-.515-1.121-.515-1.16-.521l-.132-.069-.133.3c.058.194.137.45.196.643.072.021.17.052.243.075h.004l.08.11.05.242c-.142.288-.41.465-.6.71.125.325.422.519.587.813a1.856 1.856 0 01-.31.4c.031.151.068.355.095.507.154.221.381.392.464.663.354.458.354.458 1.016.683a.983.983 0 01.485-.169l.158.227.093.312.032.175-.081.275.137.156.366.23.008.154-.241.187-.258.06c-.156.007-.31.013-.464.017l-.181.09-.015.262c.15.065.369.108.531.102.05.065.112.152.16.217a3.06 3.06 0 01-.516-.025c-.279.256-.628.07-.938.152-.529-.346-.529-.346-.743-.456-.24-.109-.502-.152-.735-.271-.368.164-.368.164-1.4-.256h-.302l-.834-.096-.046.012c-.14.04-.289.052-.426.094-.154.048-.298.123-.452.167l-.068.008h-.007c-.222.054-.31.23-.482.581-.298.414-.76.735-.955.87-.234.16-.275.19-.317.267l.025.025c.056.046.131.004.187.046.063.048.04.148.113.187.002 0 .087.013.187.01.075-.001.697-.089.697-.089l.393-.156c.07-.031.121-.092.198-.102.092-.013.169.052.258.042h.071l.02-.003h.048l.028-.002c.137-.002.266-.056.405-.058.069 0 .113.04.13.054l.182-.014.123-.02c.976-.28.976-.28 1.415-.13.345.07.345.07.78-.18.435.184.435.184.629.348l-.021.269.033.183c.77.231 1.515-.335 2.285-.075l-.096.265c-.327-.063-.362-.071-.72.133h-.085l-.052.004-.117.002-.05.002c-.014.002-.029.002-.141.18-.142.01-.333.043-.47.083-.298-.392-.912-.448-1.062-.996-.593.177-1.181-.17-1.776 0-.154.08-.356.192-.506.282l-.13.052c.043.437.086.878.348 1.255.369.127.42.202.593.448-.151.456-.151.456-.697.85.059.626.119 1.257.24 1.799.424-.612.424-.612.695-.8 1.044-1.08 1.797-1.861 3.364-2.365.075.108.17.25.246.356-.069.064-.069.064-.953.356-1.744.906-1.8.97-2.237 1.482l-.308.446c-.243.29-.558.69-.839.946.046.491.092.985.209 1.466.455-.08.89-.248 1.35-.304.029.07.069.164.096.233-.512.418-.647.53-1.478.514l-.016.004c-.09.019-.18.042-.269.059l-.106.014c-.127.067-.26.215-.37.306l.056.28-.01.518.513.191c.125.09.125.09.344.184 1.348.714 1.868-1.219 3.069-1.042l.71.036.097.202c-.075.058-.175.135-.252.191-.834-.233-.834-.233-1.427.065l-.116.187c-.983 1.583-.983 1.583-.569 3.75.075.047.169.11.242.155.07-.054.07-.054.468-.573.739-.002.745.005.993.331-.017.082-.036.19-.05.271l-.402.177-.375.206-.293.086c-.761 1.351-.245 2.02.318 2.345.75-1.146.885-1.7 1.04-2.343a5 5 0 00.506-.435l.496.162c.124-.643-.256-1.3.06-1.937.185.454.466.858.697 1.29.456.139.963.095 1.37.403.353.434.265 1.05.623 1.483l.608.577c-.002.083-.006.196-.006.279-.204.054-.204.054-1.548-.308-.1.402.014.854-.294 1.203-.152-.01-.36.01-.507.046l-.477.144-.085.635c-.23.217-.23.217-.676.281l-.059.16c-.395 1.15-.301 1.177.144 1.292.14-.09.329-.2.478-.267.131.065.327.115.473.131.035.067.08.16.116.23l-.095.318-.107.358.398.308c-.03.202-.069.471-.096.675.262.069.262.069 1.043.165-.13.112-.3.26-.427.372 1.1.648 1.1.648 1.717.456.052.048.122.113.179.16-.03.167-.107.384-.19.53l.063.23.278.378-.058.4-.274.27c-.722 1.164.971 1.63 1.319 1.712.11.27.08.573.187.843l.2.273.428.19c.394-.021.654-.356 1.02-.442a21.08 21.08 0 00-.152.225c.027.071.062.165.085.233.302.059.364.071.558.43-.167.106-.38.274-.497.433.102.112.287.222.435.262.052.277.018.56.091.833.137.044.32.1.456.144h.002l.112.068c.633.433.633.433.635.748l-.165.475c.134.258.134.258.59.502l.303-.167.275-.358c.058-.071.14-.163.2-.231l.141.245c.141.223.33.527.508.723l-.26.158-.306.2c.18.498.422 1.158.603 1.654.18.068.425.143.608.195.56-.385.705-1.264 1.548-1.312.041.17.11.394.162.56 1.977.321 2.518-1.332 2.78-2.128.07-.027.166-.062.237-.091.33.885.33.885.782.954.238-.313.244-.325.577-.815.312.987-.398 1.843-.366 2.795.457.291.457.291 1.754-.023-.088.679.043.823.345.975.15-.057.36-.12.52-.155.017.159-.062.365-.104.515-.45 1.6.522.997 1.46.416.072.021.165.05.236.07l.106.249c.32.07.32.07.751.087.031.067.031.067.269.758a1.22 1.22 0 00.405-.406c-.206-.683.27-.601.733-.52.414-.57.354-.698.216-.975-1.017-.185-1.115-.604-1.177-.88 1.34.062 1.4-.103 1.541-.5h-.004v.002h-.002l-.002-.002h-.002l-.1-.132a7.244 7.244 0 00-.017-.26c.587-.504.591-.51.814-.768-.087-.654-.464-1.231-.497-1.9.493-.506.493-.506-.017-1.81.616-.362.616-.362.764-1.38l-.007-.033-.018-.086-.025-.129c-.01-.05-.021-.102-.03-.154l-.033-.166-.033-.165-.03-.15-.04-.202c.157-.943.157-.943-1.996-2.438-.002-.015-.192-1.308 1.213-.808 1.18.42 1.685-.642 1.392-1.556 1.352-1.48 1.267-1.683 1.096-2.089a2.355 2.355 0 00-.534-.102c-.306-.429-.306-.429-.269-.766.146.031.348.052.498.048a1.7 1.7 0 00.266-.404c.23.119.391.327.593.485.578-1.389.148-1.997-.11-2.361-.506-.715-1.4-.092-1.977-.577.433-.215.755-.617 1.242-.742 1.001.675 1.228-.572 1.228-.785 0-.018-.797-1.714-1.496-1.568-.934.192-1.003-.204-1.153-1.076.146-.04.345-.057.495-.044.113-.127.113-.127 1.392.266.5-.352.498-1.16 1.21-1.312a.805.805 0 00-.074-.483 1.282 1.282 0 01-.98-.397c.032-.304.032-.304.344-.8 3.323-.273 3.323-.273 3.298-1.789a.918.918 0 01.422-.208c.058-.614-.225-1.24.069-1.843.424-.015.43-.013.71.167-.735 2.315-.675 2.467-.6 2.657.389 1 .811.668 1.04.493.483-.377-.229-.868-.002-1.303.366.29.366.29.664.352.43-.78.43-.78 1.171-.23.077-.024.18-.06.258-.087-.622-.897-.041-1.025.209-1.08.316.385.738.564 1.036.647.043-.256-.06-.519.03-.773l.249-.073c.193-.368-.055-.939.495-1.143 1.015.592 1.745-.266 1.754-.275.505-.654-.264-1.27-.056-1.913.112.104.283.226.424.291.235-.237.3-.302.275-1.26-.1-3.546 1.184-4.919 1.96-5.42.462-.144.551-.217.52-.715-.01-.173-.027-.208-.144-.318-.112-.104-.268-.115-.397-.19-.262-.158-.356-.46-.56-.666-.087-.092-.091-.094-.229-.171.204.51.406 1.025.604 1.539-.206-.52-.433-1.06-.733-1.666a7.83 7.83 0 00-.27-.46l.073-.242 2.29 1.079c.267.146.352.233.556.475.12.14.142.143.235.164.01.002 1.2.175.922-.868l.052-.063c.36.042.622.296.938.431 1.234-.526.581-.797.575-.8-.138-.051-.262.111-.402.024-.173-.11-.191-.315-.191-.398.289-.175.289-.175.304-.223.497.04.7.59 1.173.675.212-.26.231-.637.512-.858.293-.233.701.244.957-.131l.82-.817.485.023c.46.138 1.519-.991 1.598-1.29.043-.16.079-.174.185-.213.297-.113.62.308.895-.013.266-.316.266-.316.466-.362l.008-.104c.181-.098.273-.269.335-.463.668-.258 1.05-.755 1.194-1.322.213-.173.34-.318.342-.32.913-.09 1.801.185 2.707.214 1.531 2.645 1.531 2.645 1.693 4.352l.708 1.364-.067.442c-.424.693-1.063 1.245-1.352 2.032-.44.225-.546.217-.695.206-.18.157-.18.157-.225.481.02.177.042.33.064.484.138.751.138.751.654 1.103l.145-.033c-.01-.542-.01-.542.271-1.048.09-.012.21-.014.3-.006.108.015.112.015.116.017h.013l.012.002.01.002h.021l.013.002.012.002c.412.025.726-.341 1.143-.296.568.063.618.096.75.504.007.02.635 1.835 1.72 1.504-.053-.267-.252-.487-.242-.777.551-.479.551-.479.427-1.114-.15-.76-.88-1.216-1.039-1.974.054-.006.123-.017.175-.025.025-.048.24-.477.208-.756-.112-.968-1.284-1.36-1.292-2.384-.008-.927.65-1.752.414-2.714-.025-.104-.106-.223-.154-.318-1.159-2.214-1.159-2.214-1.804-4.644.046.093.102.218.142.312.018-.416-.034-1.587-.036-1.59-.75.037-1.084-1.68-.462-2.385.652-.744.874-1.816.872-1.822l-1.034-1.893c-.56-.686-.079-1.581-.462-2.3-.004-.008-.43-.79-1.198-.857-.065-.007-.148.02-.21.029-.028.054-.06.125-.088.177-1.481-1.556-1.481-1.556-.955-2.064.406-.396-.27-1.122-.816-1.204-.593-.01-.765.138-1.144.731.437.044.193 4.04.158 4.432a3.325 3.325 0 00-.91-.267c-.055.156-.132.365-.189.525-.424-.298-.576-.823-.959-1.15a8.57 8.57 0 01-.204.038c-.316-.454-.316-.454-.395-.606-.855-.181-1.194-1.626-2.278-1.12l-.44-.238-.892-.402c-.608-.16-1.157-.52-1.808-.53l-.377-.294c-.222-.588-.453-1.196-1.983-1.91.054-.146.054-.146-.37-1.024-.375.072-.375.072-1.317-.255l-.038-.004-.043.007-.069.01-.081.015-.092.014-.093.015-.09.014-.081.015c-.716.164-1.5.273-1.777-.531.643.25 1.831.293 1.837.291.502-.143.183-.774.583-.976.058.023.137.05.198.075l.064-.223c.06.144.131.34.167.493.946.344 1.97.12 2.927.4.015-1.324-1.733-.714-2.545-1.187v-.223c-.05-.043-.112-.106-.16-.152-.256.025-.256.025-.493.413-.262-.077-.424-.19-.429-.513l.196-.16.464.185c.065-.002.15-.01.214-.016.171-.296.138-.644.248-.956l.391-.096c1.292-.096 1.292-.096 2.38.494-.543.11-.555.102-1.23-.408-.064.02-.149.052-.211.074-.017.063-.04.144-.055.205-.145.01-.339.002-.478-.03l.033.263c.208.316.335.51.46.706.83.414 1.814.425 2.58 1.008 1.197-.223 1.313-2.04 2.772-1.88.006-.013.622-1.142-1.682-2.269-.147.404-.147.404-1.833.007l-.318.33c-.208-.012-.868-.114-.64-.957.3.002.405-.017.688-.098h.004c.955.508.955.508 1.086.556.048-.14.108-.323.148-.462.736-.082.736-.082.897-.765l.124-.037c.28-.08.585-.046.843-.215-.14-.672.595-1.753-.335-2.03l-.18.052h-.003c-.04.054-.091.125-.133.177-.318.017-.537-.219-.807-.325a6.393 6.393 0 01-.285.344c-.685-.063-.41-.9-.843-1.193-.533-.36-1.226-.113-1.763-.46-.06-.04-.129-.105-.183-.148-.027-.021-.647-.527-.663-.985.64-.22 1.508 1.062 1.795.256l-1.026-2.416-.233-.254-1.354-1.129c1.918-.15 6.157-.18 9.62 1.797l.095.059.19.123c.367.247 1.753 1.422 1.762 1.43.476.454 1.156.523 1.674.894.687.487.687.487 1.274 1.432.287.459.828.536 1.232.815 1.843 1.274 4.011 2.049 5.622 3.68.262.39.886.662 1.309.868.191.612.191.612 8.703 6.097l-.02.69c-.729.235-1.168.38-2.828-.124-.17.132-.4.315-.57.448.728 1.275.728 1.275.605 2.103-1.583-.154-1.885-2.109-3.373-2.398.36.287.828.689 1.17 1-.125 1.98-.125 1.98-.104 2.057-1.809-.7-1.809-.7-2.035-.846.095.364.189.737.285 1.104h-.013c-.1-.373-.193-.752-.291-1.125l-.98-1.039-.408-.677-.949-.402-.035-.004-.102-.012-.144-.019c-.056-.006-.114-.017-.168-.02a4.62 4.62 0 00-.177-.024c-.056-.008-.112-.014-.164-.02l-.136-.017-.083-.01-.302-.055c-.736-.1-.774.065-.965.975-.092.425-.092.425-1.852.91-.358.379-.845.602-1.184 1.001.693 1.06.693 1.06.676 1.31-.091 1.4-.091 1.4-.029 1.664.03.106 2.97 4.763 2.997 4.802.784 1.133.903 1.308.963 1.5.158.502-.131 1-.025 1.501l2 5.694c.012.02 2.376 2.775 3.472 3.417.01.004 1.134.716 1.217.82.67.827.972 1.872 1.638 2.703-.046-.264-.098-.524-.146-.787.077.092.158.18.248.26.069.286.129.563.202.856 15.765 17.078 16.485 16.545 19.51 14.315l.662.331c.177-.125.415-.293.591-.42 2.112 2.444 5.165 3.97 6.746 6.936.695 1.306 1.68 2.36 2.728 3.357.356 1.587.35 1.658.243 2.449a9.033 9.033 0 00-1.897.84c.195.94.195.94-.77 2.725-1.92 4.43.497 7.797 2.326 11.31l-.162.558-.242.494a3.23 3.23 0 011.05.272c.54 1.202.946 2.439 1.023 3.755a8.097 8.097 0 001.995-.446c.325 1.312-1.021 2.739.277 3.984 3.159 3.022 8.54 3.524 9.534-7.992l10.828 14.643c-.59.7-1.488 1.2-1.567 2.227.304.18.672.489.9.758-.138.666-.138.666-.73 1.913.848.931 2.444 1.108 2.668 2.664a9.698 9.698 0 00-1.265-.271 8.268 8.268 0 00-.553 1.143 3.094 3.094 0 01-1.145-.32c.252.639.456 1.293.64 1.95-.719-.066-1.543-.464-1.863-1.848-1.78-.915-1.78-.915-1.765-5.225a10.163 10.163 0 001.422-1.568c-2.45-3.251-2.45-3.251-2.223-3.75-1.01-2.385-1.01-2.385-1.194-3.018-.295-.059-.693-.142-.988-.202-3.252 7.796-3.252 7.796-1.107 12.082l1.023.113c.186.266.431.62.616.887-.139.264-.322.614-.457.878 1.007 1.535 1.007 1.535 2.026 2.364.768 1.38 1.56 2.811-.158 4.438-6.958-2.262-5.607 8.744-9.43 12.336-3.845 5.89-3.845 5.89-3.246 7.212-.832 1.19-2.051 1.972-3.077 2.957.054.62-.06 1.48-.302 2.053-2.322.177-4.621-.88-6.954-.106 2.5 2.738 2.435 3.373 2.329 4.425-6.122-.269-7.576-.331-9.189 2.193.862 2.203.862 2.203 1.592 2.71.058.039 8.543 5.012 10.745 5.834.766 2.035.766 2.035.834 2.9-.212 2.97 1.912 5.98-.133 8.924-.046.075-16.032 3.16-19.124 1.945-3.695 2.19-4.292 3.45-4.546 3.988 1.598 2.074 1.61 2.526 1.64 3.62 1.487 20.543 1.487 20.543 1.45 20.961 2.338.065 4.454-1.497 6.864-.924 1.875.445 1.785 3.003 3.68 3.427.342.075.816.08 1.164.117 1.436-1.6 3.491-2.555 4.617-4.473 1.731.316 1.731.316 4.773.377l.61-.504a344.65 344.65 0 005.339-6.691l.065.023.006.002a.397.397 0 01.002-.12c.356-.465.684-.898.97-1.28.03.053.097.103.282.163.09-.077.115-.087.508-.09.083.627 1.656-.562 2.104-1.085-.088-.135-.144-.229.154-1.07.158-.443.158-.443.098-1.735-.242-.214-.269-.637-.269-.641.137-.048.175-.06.266-.402.267-1.006 1.457-.641 1.692-.558-.048.212-.112.498-.158.71.008.263.023.97.474.56.217-.195.148-.579.462-.706.098.082.098.082.323.65l.678.15c.246-1.087.899-.081.928-.037.15.235.227.5.341.751-.378.31-.378.31.238 2.36-.16.14-.373.316-.535.456.002.237.002.733.229.816.056-.031.549-.341.566-.441.085-.523-.175-1.027-.096-1.546.077-.497.333-.945.38-1.447l.011-.104c.004-.094-.108-1.11-.108-1.118-.035-.142-.092-.383-.556-.983-.4-.519-1.165-.469-1.56-1.002-.329-.443.141-1.237-.568-1.489-.009-.004-1.326-.15-1.546-.081-.181.37.18.86-.262 1.172-.335.234-.818-.212-.88-.374-.075-.2-.075-.2.126-.773-.245-.148-.235-.746-.593-.585-.472.21-.472.21-.686.014-.23-.21.045-.512-.127-.733-.287-.372-.689-.618-1.047-.914.622-.837 1.425-1.474 2.285-2.053l.478.67c.077.1.077.1.61.448.283-.24.464-.27.55-.285.058-.008.234-.038.38-.344.03-.056.06-.164-.017-.254-.054-.064-.168-.196-.195-.612-.135-.094-.314-.296-.46-.49.212-.135.427-.272.639-.412l.46 1.248c.443.797.443.797.405 1.468.015-.075.015-.075.06-.383.015-.105.03-.207.042-.309.013-.077.023-.156.034-.23l.025-.167.016-.11.007-.07.006-.035.002-.01v-.004c.497-.321.578-.271.62-.246a9.94 9.94 0 01-.038 1.389c-.072.562-.39 1.091-.251 1.682.197-.13.994-.716 1-.724.296-.217.691-.219.97-.467.117-.108.235-.785.235-.791.03-.408-.376-.496-.553-.748-.312-.441-.331-.683-.348-.895-.058-.704-.058-.704-.056-.72.044-.236.343-.357.279-.638-.046-.19-.104-.377-.152-.566-.046-.181-.141-.344-.204-.519-.031-.079-.075-.2-.166-.314.083-.115.156-.24.229-.365.11.186.289.44.759 1.11.3.425.273.502.235.619a.783.783 0 00.05.59c.108.01.185.016.518-.35.08.016.08.016.167.074.447.306.447.306.616.648.214.44.214.44.43.402-.004-.283.086-.558.05-.844-.054-.408-.22-.787-.31-1.185l.023.032.008-.125c-.064-.485-.047-1.023.052-1.437.075-.315.075-.315.446-1.054.489-.974.489-.974.557-1.208-.31-.193-.297-1.516-.09-1.599l.06-.012c-.06-.05-.06-.05-.238-.096-1.713-.369-1.04 1.128-1.03 1.143.048.077.119.18.17.258.286.423.286.423.319.506.083.213.054.452.15.662a.324.324 0 01-.144.132c-.339.127-.705-.088-1.042.083-.227.115-.325.404-.595.469a.351.351 0 01-.402-.171c-.075-.117-.15-.177-.25-.192.142-1.293-.102-2.867-.014-4.123.066-.17.091-.32.048-.437.152-.99.603-1.704 1.793-1.783l-.02.075c-.138.283-.369.508-.492.802-.002.008-.318.78-.195.814.07.02.137-.025.208-.015.073.013.137.065.214.052.235-.372-.002-.853.275-1.218.041-.052.068-.056.154-.043a.457.457 0 00.397-.148c.127-.134.223-.234.298-.31.678.016 1.273.033 1.806.035.154.293.295.452.418.462.017.002 1.706-.148 2.027-.606 1.727-.331 2.31-1.337 3.87-4.027.216-.313.768-.446 1.123-.575.57-1.35 5.375-1.493 5.42-1.485 2.895 5.138 8.758 6.88 12.56 10.98l.93-.33c.46.406.966 1.078 1.238 1.63 2.189.581 2.913 1.47 3.136 3.69-.924 1.033-1.222 2.379-1.111 3.786-.05.01-.1.019-.163.036-1.003.535-1.219 1.84-2.278 2.32-.435.195-1.157.118-1.59.072-.872-.09-1.02-.058-1.573.063l.562-.17c-.732-.457-1.342-.076-1.64.945-.151.029-.3.062-.432.087a132.63 132.63 0 00-.429-1.008c-.31-.102-.724-.241-1.034-.348-5.46 3.286-5.46 3.286-5.955 3.057-4.486 2.339-4.486 2.339-5.225 3.04-.37-.018-.861-.043-1.232-.064l-.416-.445c-5.761 1.23-9.942 3.231-12.882 5.18.023-.08.036-.166.088-.237.091-.125.312-.096.345-.291.034-.204-.073-.467-.241-.844-.206.115-.341.371-.362.688-.015.23.048.58.087.74-4.124 2.756-5.772 5.39-5.882 5.573-1.908 1.358-5.412.552-5.443.538l-.96.404c-1.803.964-2.176.866-3.289.566l-.013.004-.045.009-.017.002-.017.002-.014.004-.43.069c-2.85-1.366-2.85-1.366-3.638-1.512-1.633 2.776-2.189 6.041-3.964 8.754-7.863 4.496-5.66 14.628-11.358 20.338-1.917 3.132-6.047 3.413-8.13 6.326-.18.548-.352 1.297-.462 1.864-3.51 5.804-6.044 9.991-7.884 13.036a33.445 33.445 0 00-.366-.21l-.387.418-.168.233h-.007l-.002-.002c-1.344.946-3.046.856-4.477 1.543-.098-.17-.23-.404-.327-.574-.233.106-.233.106-2.776.772-1.153-1.337-1.153-1.337-1.178-1.39-.821.932-.821.932-1.912 1.574-.164-.598-.212-1.217-.33-1.827-1.5 1.341-1.5 1.341-1.975 1.914.443.673.395 1.508.705 2.224a3.244 3.244 0 00-.376 1.154c.597.468 1.42.175 2.026.606l-.091.585a3.402 3.402 0 01-1.199.352c.162.069.377.164.535.235-.067.325-.067.325.96 4.413l-.79.793c-1.65.737-2.56 2.587-4.448 2.972-1.034-.731-1.144-.808-4.98 2.488-.211-.041-2.833.669-3.068 1.516-.37.115-.37.115-1.63.706l-.439.17h-.004a46.4 46.4 0 00-.335.44c-1.748-.287-1.748-.287-2.08-.572-.16.027-.373.06-.535.09-.672-.988-.51-2.322-1.353-3.239 1.353-10.233 1.353-10.233 1.213-15.793 1.282-1.272.612-6.739-.955-7.797-.753 1.07-4.13 7.647-4.159 7.707-3.104 6.24-3.104 6.24-4.49 5.41-2.69.96-2.888 1.983-3.54 5.365-.3 1.541-.3 1.541-3.56 6.127.62 3.398-3.031 8.413-8.025 9.206-.404.937-1.554.937-2.11 1.68.092.159.092.159-3.535 7.785-.26-.288-.483-.781-.58-1.158-.718.256-1.068 1.012-1.771 1.289a27.18 27.18 0 00-.477-.265c-.984 1.175-2.047 4.57-2.058 4.6-1.154.594-1.154.594-5.428 5.546-.148-.07-.348-.164-.495-.237-.19-.565-.344-1.14-.54-1.702-.653 1.808-.15 3.713-.453 5.548-.468 2.843-1.665 5.523-1.85 8.423-.041 3.166.573 6.264.943 9.388l-.104.056h-.015c-1.523 1.554-3.445 2.67-4.8 4.409l-.104-.793c-2.626-.036-2.626-.036-3.808-.954 6.026.143 6.026.143 7.22-3.603-6.635-1.895-7.105.506-7.48 2.439-.59-.338-1.26-.725-1.748-2.468 4.647-5.81 4.647-5.81 1.92-7.007-4.046-10.769-9.523-10.89-11.325-10.93-.056-.007-6.24-.426-6.947.26-.19-.118-.441-.278-.63-.397-3.326 1.092-4.942-2.736-7.884-2.744-1.463-4.494-6.638-6.922-9.848-5.754.045-.668.045-.668 1.069-2.06-1.028-1.455-1.067-1.511-2.486-1.289a8.413 8.413 0 00-1.382-.851c-.395.218-1.01.38-1.459.356-.058-.231-.14-.546-.197-.777-.45.02-1.089-.17-1.424-.473.009-.223.021-.527.032-.754.466-.22 1.084-.53 1.54-.776-6.467-1.325-13.1.95-19.545-.894-.953-1.516-.953-1.516-1.034-2.007-4.201-1.125-4.201-1.125-4.353-3.02a22.971 22.971 0 01-1.38-.633c-1.319 1.248-1.344 1.772-1.387 2.643-1.055.42-2.22.504-3.225 1.077-.35 1.278.322 2.271.913 3.284a.726.726 0 00-.212-.155c-.437-.252-.606-.785-1.055-1.024-.133-.073-.296-.075-.414-.173l-.08-.073c-.085.21-.164.362-.34.575l-.107.135c.596-1.114 1.097-2.711-.362-4.354v-.04l.49-.652c1.4.171 1.4.171 2.255-.628.229.012.53.03.755.047-.002-.805-.002-1.434-1.392-1.645-3.104-.037-9.571 3.19-10.029 3.73-2.555-.404-2.813 2.224-3.876 3.859.052-.331.035-.7.02-.981-.004-.085-.01-.196-.012-.281-2.555-1.745-2.555-1.745-3.531-2.855-1.286-1.456-1.935-3.343-3.213-4.804.104-1.077-.166-2.164.096-3.234.229-.925-.695-2.127.458-2.812.988-4.036.988-4.036-.306-5.978-2.014-3.164-5.208-4.44-5.235-4.449-.373-.093-3.277.213-3.296.217-1.517.427-2.665-.95-4.116-.848-.077.007-.174.02-.25.025-.742.073-1.487-.162-2.232.009-.606.14-.888.862-1.569.862-.09 0-.206-.033-.293-.048-1.06-1.539 1.512-2.218 1.579-3.63.06-1.33.06-1.33-.782-3.96 1.115-.305 1.115-.305 1.152-.565.131-.879-.747-1.43-.736-2.27.3-.293.418-.36.657-.49.213.238.213.238.579 2.227.516-.777.503-.85.447-1.266-.004-.03.004-3.94.502-5.104.289-.683 2.888-2.89 2.915-2.913-.59-1.82-1.794-2.14-2.308-2.275-.356.063-.356.063-.882.31-1.084.507-1.084.507-2.838-.218-1.001-.41-1.875.23-2.813.337-.774.09-1.474-.268-2.216-.379-.92-.137-.774 1.454-1.696 1.156-.323 1.348.225 2.75-.26 4.086-.1.273-.404.327-.566.533-.595.746-.789 1.785-1.694 2.303-.014.127-.014.127-1.769.098a1.427 1.427 0 00-.295-.391c-1.15.135-2.164.814-3.342.851 0 .088.002.175.005.263l-.077.002a11.94 11.94 0 00-.009-.269 17.44 17.44 0 01-.45-.05c-.06-.006-.064-.008-.066-.008l-.01-.002h-.009l-.02-.004-.009-.002h-.01l-.008-.003c-1.274-.139-2.516.48-3.798.159-.133-.31-1.29-1.887-1.766-1.958-1.948-.27-3.935-2.75-5.91-7.367-2.615-6.123-2.615-6.123-2.503-12.31.835-.52.835-.52.323-3.44.456-.57 1.078-1.006 1.394-1.695.114-.41.117-.41.119-.41l.01-.05.064-.35.009-.008.014.01.034-.262.045-.227-.014-.02c.187-1.975-1.394-3.577-1.16-5.561.186-1.56 1.65-2.326 2.248-3.632 1.842-.192 6.386-2.212 6.415-2.23.106-.475.175-.956.266-1.431 1.846.281 3.793-1.36 5.566.294l.009.01c.36.354.36.354 4.15.99 1.505.249 1.857 1.992 3.188 2.467.56.2.972-.296 1.486-.315-.075.075-.175.18-.25.254l.106.3c1.199.281 1.623-.262 1.771-.612l.285-.11c.502.3.452.924.78 1.326.221 0 .633-.002 1.13-.554-.168-.585-.678-1.02-.753-1.653l.01-.169.009-.154.008-.144.008-.125.005-.106.006-.077.002-.048.002-.016-.697-.486c-.006-.1-.015-.235-.023-.337-.6-.41-1.327-.398-1.99-.606.292-.373.292-.373.846-.606 1.09.498 1.09.498 3.539.233.811.662.936.769 2.03 1.285.327-.329.467-.79.777-1.126.083.008.198.018.28.029.848 1.395 1.405 1.005 1.676.82.405-.283.959-.668 5.341.781l.264.81c2.016 1.837 2.016 1.837 5.516.943.88.525 3.793 2.506 4.299 6.015-.524.951-1.519 3.336.508 4.893.02.017 2.11 1.997 1.286 4.072.345.418.807.972 1.152 1.386.408.082.822-.345 1.222.021.077.071.189.15.25.236.443.628.08 1.455.51 2.086.353.52 1.09.35 1.47.827.28-.254.656-.587.937-.837.293-1.04 1.298-1.764 1.292-2.934a8.217 8.217 0 01-.238-.167c-.289-1.603-.449-3.226-.68-4.84-.254-1.757-2.395-3.077-1.196-5.172 1.121-1.96-1.52-2.833-1.792-4.446-.462-2.751-.462-2.751-.031-4.873.006-.03.913-2.84 5.645-5.569.834-.48 1.873-1.078 3.812-3.513 2.93-.196 2.93-.196 3.572-.845 2.47-2.495 2.94-1.868 3.142-1.6.75-.114 1.526-.76 1.532-.766l-.185-.24c-.816-.064-1.625-.135-2.439-.2 0-.004 0-.008.002-.014.803.065 1.602.133 2.407.194a10.79 10.79 0 01-1.27-.89c.043-.185.103-.43.149-.618 1.19-.566 2.834-.173 3.579-1.689-.069-.187-.16-.44-.231-.627-1.688-.56-.928-1.401-.325-1.855-.008-.258-.008-.258.092-2.26-.758-.545-1.625-.908-2.366-1.472.358-.194.818-.477 1.155-.708-.66-1.341-.66-1.341-1.376-3.809 1.274.263 1.274.263 2.651-3.463.358 1.702-.212 3.526.7 5.15-.188.337-.467.769-.696 1.079.23.33.691.68 1.074.8.689-.5 1.46-4.15 1.4-6.62 2.09 1.94 4.47-1.313 4.482-1.356.281-.93.464-1.883.75-2.812a5.11 5.11 0 00-1.014-.83c.069-1.181.098-1.202.876-1.787l.244 1.358 1.186-.769c2.247-1.326 2.247-1.326 3.52-.641 1.459-.88 3.531-.242 4.68-1.893.622-.1.622-.1 2.02-.867-.283-1.57-.911-3.304-.918-3.321 3.015-4.996 3.482-5.764 11.707-7.805a3.78 3.78 0 00.832-.94c.36.144.922.172 1.286.045.01-.105.01-.098.01-.094.086-.396.144-.94.14-1.345 1.554.118 1.554.118 2.467-.942 1.032.706 3.935.138 4.489-1.128.189.03.445.068.634.1.019.383-.029.903-.106 1.28.876.046 1.75-.402 2.628-.018.058.183.135.426.196.61-.123.16-.283.377-.406.539-1.384-.498-2.68.62-4.06.219-.097.06-.097.06-4.013 3.604.037.321.037.321-.127 1.935 3.984 1.424 5.418-3.215 8.628-3.632 3.402-.441 6.153-2.89 9.62-3.132a5.676 5.676 0 01-1.007-1.016l.13-.756c-.902-.429-1.616-.77-3.156.587l-.501-.55c-.945-.037-1.827.336-2.751.423-.404-.537-1.33-.86-1.968-1.074-.918-.542-3.317-3.54-4.665-5.833.476-.546 1.01-1.04 1.44-1.629a3.426 3.426 0 00-.514-1.222c-.317.046-.317.046-2.02.543a2.89 2.89 0 00-.685-1.06c5.2-2.613 5.2-2.613 5.256-3.196-3.81-2.69-7.75-5.47-21.994 6.41 2.408-5.794 8.954-6.562 12.824-10.58 1.217-1.376 1.404-1.586 4.126-2.469 10.8-.125 10.932-.025 11.802.637.876.013 1.752.021 2.63.032 4.161-1.206 4.161-1.206 4.767-1.494l11.991-6.493.466-1.055-.932-1.125-.375-.897c.666-1.212.337-2.637.824-3.884-1.009-1.745-4.342-2.74-4.798-1.031-.054.198-.077.47-.11.673-.43-.835-.285-1.798-.597-2.66-1.43-.391-1.56-.318-4.917 1.552-2.38 2.292-3.02 1.743-3.76 1.108l-.025-.638c3.007-.57 5.639-2.147 8.483-3.16l.95-.528c-1.545-.633-1.545-.633-1.58-1.868-.533-.225-1.034-.437-2.383.309a40.45 40.45 0 00-.705-.252 5.192 5.192 0 00-.512-1.383c-.193-.019-.451-.042-.647-.06-1.115 1.04-1.115 1.04-1.58 1.186.103-.372.12-.903.053-1.284-1.713-.586-1.532-3.286-3.723-3.34-.938-1.136-2.528-3.614-2.528-3.62a6.459 6.459 0 001.403-.441l.247-.706a4.73 4.73 0 01-.505-1.25c-.342-.645-1.161-.924-1.317-1.712-.11-.568.549-.608.799-.935-.575-1.076-1.79-1.382-2.603-2.174.025-.828-.498-1.418-.556-1.484a4.74 4.74 0 00-.545.056c-.914-.665-.246-1.604-.414-2.4-.314-.2-.314-.2-1.51-2.165l.17.225c.083-.12.179-.352.106-.479l-1.719-2.27c-.14-.404-.145-.427-.212-1.655-.762.433-.822 1.543-1.754 1.813-.02.113-.05.267-.075.381-.125.367-.125.367-1.04.627-.215.723.412 1.25.45 1.914l-.192.165a4.883 4.883 0 01-.477-.155c-.383.446-.455 1.035-.716 1.537l.181.186c.159-.013.37-.027.527-.038-.41.883-1.115 1.604-1.37 2.568l-.349-.06c-.252-.377-.397-.809-.601-1.21-.015-.003-1.444-.05-1.823 1.743-1.829.666-1.829.666-2.035.783-.135-.28-.106-.592-.168-.885a4.18 4.18 0 00-.477-.209c-1.238 1.218-1.238 1.218-1.664 1.206-.225-.252-.225-.252.638-1.874-.245-.712-.42-2.058-.42-2.064-.714-.079-2.832.48-3.094 1.404-.079.002-.181.002-.258.002-.64-.648-.772-.902-.824-1.602.056-.045.133-.108.19-.152 1.541.708 1.737.275 1.568-.839a11.16 11.16 0 00-.114.22l-.768-3.387c.214-2.374.214-2.374.117-2.426-.252-.127-.027-.433.382-.985.695-.942.83-1.216 1.045-1.762-.705-.712-1.544-.144-2.314-.244a.824.824 0 01-.1-.52c-.59-.084-1.192.066-1.785-.052-1.49-1.473-1.49-1.473-1.486-2.491 0-.225-.13-.99-1.856-1.33-.526-1.931-.526-1.931-.79-2.55-.031-.01-3.171-.843-4.655.683l-.235-.04c-.501-.776-.67-1.038-1.253-.863l-.212-.134c-.235.1-.235.1-.726.488-.073-.027-.166-.063-.24-.088-.087-.362-.087-.362-.095-.979-.067-.043-.152-.102-.218-.145a1.438 1.438 0 00-.088-.486c-.6.092-1.117.542-1.77.4-.523-.112-.433-.768-.854-.968-1.067.267-2.819 1.02-2.977 1.341-.654 1.33.354 3.948.37 3.965-.4 1.18-1.188 2.21-1.36 3.478-.121.876.663 1.543.557 2.415-.127 1.037.364 2.074.01 3.114-.056.166-.374.187-.549.2a2.709 2.709 0 00-.632.129c-.783 1.795-2.739 2.64-3.554 4.408 1.296.575 2.397 1.49 3.674 2.101.3 1.487 1.282 2.789 1.188 4.382.77 8.52-7.996 10.037-8.997 10.183l-.462-.452c-1.125.61-1.743.946-.476 10.733 1.635.985 1.309 1.352-.814 3.738.158.427.408.983.641 1.372a7.022 7.022 0 01-.768 1.248c-.763-.54-.763-.54-1.643-1.277-1.17.983-1.38 1.158-.712 2.283-1.556-1.666-1.556-1.666-3.56-.894 1.02-1.489 1.02-1.489 1.259-2.399a50.644 50.644 0 01-2.193-2.5 3.67 3.67 0 00-1.245.212c.263-.336.635-.763.937-1.062-.387-1.146-1.305-1.962-1.863-3.001.377-.85.591-1.764 1.037-2.585-.433-1.118-.42-1.176-.077-2.655-1.057-1.711 1.833-2.807.705-4.531-1.126-1.718-3.013-.34-4.38-1.079l-.164-.65c-1.155-.164-2.351.284-3.477-.25-.08-.416-.19-.97-.281-1.382-1.704-.431-2.72-2.287-4.648-2.255-.16-.404-.285-.992-.246-1.423-2.796-2.599-2.796-2.599-3.134-2.774-.761-.826-.788-.847-1.483-1.357-.192.048-.447.112-.639.158-.279-.275-.566-.75-.66-1.133-1.185-.535-2.095-.67-3.004-.81-2.27.733-2.27.733-3.408.59l.123-.663c.014-.433-.425-.504-.862-.575.437.071.876.142 1.317.21.445-.343.537-.414.595-.522.102-.185.034-.5-.035-.804-.15-.687-.241-1.104-.127-1.901.062-.433.069-.48.062-.666-.014-.321-.158-.627-.124-.952.091-.89.214-.931.272-.948l.033-.018c.015-.059.003-.082-.085-.236-1.209-1.768-1.925-1.505-2.755-1.203-.177-.369-.476-.987-.632-2.92.133-.104.312-.237.447-.34.293-.395.304-.43.316-.464l.04-.106.041-.112.044-.121.046-.13c.019-.047.035-.097.054-.143.017-.054.037-.104.056-.158.023-.059.044-.119.065-.177 4.89-8.145 4.89-8.145 5.996-8.655 1.345-.616 1.394-.645 1.532-1.79.054-.034.106-.072.16-.115.135-.05.28-.098.402-.14.093-.22.183-.443.274-.664.086-.115.169-.23.248-.346-.127.325-.256.648-.383.975.472-.131.472-.131 1.238-.463.42-.589.358-.685.148-1.005.147-.513.147-.513 2.072-.733.017-.888.017-.888.042-1.081.605-.019 1.036.529 1.641.504.448-.017.448-.017 1.32-.627l.605.017c.379-.38.38-.386.535-.702-.052-.071-.12-.165-.175-.236-.566-.747-.374-2.217-1.702-2.242l-.143-.206c.058-.153.129-.359.168-.517-.056-.042-.129-.098-.187-.14-.375.071-.728.215-1.099.307.004-.75-.616-1.235-.811-1.902.272.219.489.39 1.602.925a.974.974 0 00-.25.423c1.702-.356 2.262 1.824 3.843 1.736.198-.251.235-.266.947-.4 1.176-2.107 1.176-2.107 1.87-1.018.173.023.348.048.523.073 1.766-.233 1.766-.233 2.728-.766l.847-.24c.439-.868 1.408-1.282 1.841-2.155l1.005-.702.316-.591.398-1.27-.508-.065c-.24-.219-.551-.314-.82-.485 2.023.335 6.249-3.16 5.258-4.346-.166-.202-.424-.28-.618-.444.19-.545.19-.545.916-.722.493.43.493.43 1.286.154 1.163 2.276 1.163 2.276 2.274 1.428.014.017 1.62.792 1.775.213.058-.213 0-.38-.367-1.47-.089-.232-.089-.232-.582-1.352-.597-.058-.597-.058-.724-.083.235-.277.618-.21.894-.388l.04.027c.117 1.027 1.226 2.326 1.236 2.333.112.743.137.895.824 1.632.017-.177 0-.429-.083-.585.041-.104.041-.104 2.172-1.174.027-.163.031-.398-.031-.55.747-.1.747-.1 1.51-1.045.51-.075 1.365-.202 2.389-2.285.033-.07.06-.173.085-.248-1.8-3.25-1.8-3.25-1.46-4.802.303.002.605-.006.909.01a.673.673 0 00.364.265c.633-.575 1.565-.758 2.035-1.547-.466-.517-.466-.517-.782-.369-.312-.293-.267-.423-.175-.68.31-.149.666-.194.949-.411.033-.267.075-.627.106-.895-.558-.469-1.925-.365-1.702-1.37l-.142-.167a17.53 17.53 0 00-.512.023c.084-.354.084-.354.498-.498.07-.175.16-.41.21-.591-.522-.17-1.022.276-1.546.054-.318-1.227-3.566-.981-3.6-.977-.048-.14-.179-.317-.31-.381-.33.24-.339.252-.566.537.05.056.117.127.167.181l-.208 1.127c-.054.152-.156.34-.25.468.015.086.035.198.052.282.119.06.306.093.437.075.058.05.133.118.191.17.054 1.479.054 1.479.452 1.552-.019.035-.45.872-2.037.983-.042-.054-.098-.125-.137-.18h-.23a785.72 785.72 0 00-1.712 3.422c-.426.262-.884.475-1.294.766-.42.273-.42.273-1.604 2.256l-.735.054c-1.16.53-1.16.53-1.716 1.51.376-2.141-1.31-4.605.998-6.443l.24.16.02.283c.691-.419.65-.995.6-1.728l.31-.746-.03-.722.013-.715-.51.065-.376-.575-.433-.319c-.462-1.401-2.268.69-2.285.71-.122.146-.168.409-.241.582-.737.135-1.363 1.037-1.918 1.83.004-.019.414-2.057 1.473-2.524.03-.083.075-.198.106-.283-.27-.285-.27-.285-.764-.629.281-.7.281-.7 1.207-.525.102-.333.216-.664.314-1-.345-.397-.345-.397-.395-.62-.695-.233-.583-.964-.884-1.441-.217.08-.39.144-.469.585-.853.592-1.895-.256-1.858-.554.01-.077.077-.162.11-.235-.066.02-.156.05-.224.07 2.349-1.315 2.426-1.32 2.709-1.334a6 6 0 00.108.198l.227.016c.41-.524.761-.978.256-1.799-.653-.133-.774-1.543-.762-2.703.01-.812.779-1.335.818-2.139-.09-.662-.119-.885-.144-1.884-.92-.452-.92-.452-1.231-1.118 1.835-.506 1.835-.506 2.617-1.256l.966-.646.06-.541c.241-.664.298-.825 1.3-.858 1.012-.12 1.012-.12 1.182.025.15.127.606.52 1.548-.038.37-.218.37-.218 1.263-1.616.192-.297.192-.297.6-.408.104-.029.245-.085.25-.085l1.202-.875 1.332-1.38c.129-.165.258-.644.258-.648-.05-.154-.658-.64-.664-.641l-1.517-.215c-.002 0-.206-.02-.429.01l-.047.009c.025-.119.041-.233-.04-.35-.064-.094-.187-.052-.262-.123-.12-.11-.063-.356-.287-.39a1.8 1.8 0 00-.337-.003l-.067.004c-3.974.256-3.974.256-4.586 1.393-.129-.113-.302-.26-.433-.373-2.665 2.949-2.511 7.76-6.483 9.846a8.807 8.807 0 01-.368 1.216c-.648-.115-2.169-.377-3.829 2.828.127.337.302.783.439 1.116-1.608 1.073-2.923 3.17-1.097 4.157l.504.356c.229.45.822.868 1.255 1.13-.493 1.23-2.012 2.874-2.025 2.883.11.148.252.345.362.495.639-.227.639-.227 1.523-1.158-.133 2.533-2.112 3.164-4.848 4.038-2.545.815-2.09 3.632-3.477 5.221.479-1.645.479-1.645.51-1.8a3.6 3.6 0 01-.96-.651c.034-.99.41-1.143 1.03-1.4.338-.28.352-.306.365-.333l.048-.09.052-.1.106-.21.054-.1.046-.089.041-.077a4.2 4.2 0 00.448-1.091c-.163-.081-.375-.194-.533-.275-.04-.13-.09-.304-.127-.431l-.553.196a84.008 84.008 0 01-.448-.354c.069-.346.092-.82.057-1.17-.238-.084-.238-.084-2.181.576-.252-.2-.68-.364-1-.385.168.752.26 1.164-1.797 3.071-.108-.137-.255-.318-.364-.458.1-.16.238-.375.337-.537-1.82-.004-3.64-.056-5.462-.052-.405-.793-1.822-.837-1.625-2.06a39.255 39.255 0 01-.357-.451c-.581-.015-.581-.015-1.738-.296-.632-2.736-.632-2.736.065-4.567-1.784-1.535-7.451.883-7.632 1.837-.034.177.058.414.083.593 1.265.15 1.265.15 1.69-.048l.037.009.027.006.02.006.013.004.008.002.007.003c1.271-.713 2.807-.144 4.076-.856l-.148.616c-1.893.933-4.157.818-5.936 2.085-.09 1.368-.976 4.229-.984 4.248a68.386 68.386 0 00-.479-.344c-.341.275-.341.275-.98 1.533-.03-.21-.064-.49-.092-.698-.251-.185-.486-.585-.532-.893 1.758-1.32 1.758-1.32 1.995-2.268-.308-.15-.795-.235-1.13-.169.017-1.076.048-1.118.587-1.811-.826-.608-.824-.775-.807-1.47a64.95 64.95 0 01-.516-.327c-.6.195-.6.195-1.744.141-.574.554-1.115 1.077-3.202-.02-.851.31-1.068.201-1.48-.396-.185-.025-.43-.065-.615-.09a5.826 5.826 0 01-.183-1.152l-.585-.008-.004-.002-.002-.002-.007-.002-.002.002-.002-.002h-.002l-.002-.002a39.737 39.737 0 01-.435-.402c.876-1.018 2.618.077 3.325-1.358.612-1.241.477-3.688-.73-3.913-.77-.141-1.57.142-2.33-.15-1.347-3.092-1.347-3.092-2.142-3.373.073-.385.223-.892.373-1.256-2.295-2.507-2.295-2.507-2.462-2.547-1.323-.323-1.891 1.437-3.198 1.16.662-1.097 2.705-3.136 2.724-3.155-.125-.116-.29-.273-.412-.387-1.613.58-2.614 2.06-4.107 2.81.87-2.27 3.849-3.722 2.644-6.8-2.75 2.861-2.75 2.861-4.376 3.196-.553-.62-.72-.807-2.74.121-.458.431-.91.869-1.363 1.304-.014-.008-.027-.019-.04-.027.415-.402.829-.804 1.245-1.202l-.387.18c-.269.11-.63.245-.911.32.052-.115.118-.267.17-.379a2.093 2.093 0 00-.054-.14c.655-.15 1.298-.347 1.91-.67.639-.602 1.276-1.2 1.917-1.79-.785.049-1.476.722-2.323.338-1.11.425-2.338.482-3.391 1.083a44.62 44.62 0 00-.196-.325c-.241.078-.564.178-.805.25 1.111-.83 1.111-.83 1.105-1.501-.547.083-.972.458-1.486.618-.905-.516-.905-.516-3.337 2.277l.172-.713.03-.397c-.023-.269-.013-.28-.002-.29l-.015-.01c-1.113-.658-1.113-.658.243-3.53l.776-.641-.245-.175-.006-.004c-.11.02-.256.045-.366.066-.396-.58-.396-.58-.822-.706-.194-.11-.2-.104-.206-.1l-.017-.014-.012-.013c.439-1.17 1.08-2.26 1.369-3.486-.408-.343-.408-.343-1.145-.225a2.309 2.309 0 01-.383-.637c.352-.39.577-.877.951-1.247-.437-.415-.543-.434-1.038-.465.493-2.463.493-2.463.252-3.082.083-.091.187-.214.268-.304a11.41 11.41 0 01-.88.148c.907-1.177.907-1.177.924-1.406 1.109-.851 1.109-.851 1.554-1.52-.116-.048-.274-.11-.391-.156-.02-.112-.048-.256-.069-.366-.11.037-.256.091-.366.13.14-.185.14-.185 1.13-1.138-.254-.055-.254-.055-1.14.293.64-1.03 1.954-1.362 2.544-2.442-.888.291-1.666.88-2.623 1.001a1.275 1.275 0 01-.163-.708c-.959.131-1.716.856-2.696.92.06-.116.143-.276.206-.393-2.865-.398-4.237 2.218-6.421 3.19-.009-.135-.02-.316-.027-.454l-.296.08.104-.292c-.605.196-.605.196-9.09 8.43l.012.375c.102-.06.24-.144.341-.205-.6 1.02-1.598 1.673-2.355 2.547l.06.067.216.306c-.07.094-.164.217-.235.31l-.586.486c.054-.103.127-.238.183-.34-.493.158-.866.616-1.44.577l-.125-.4c.108-.2.177-.516.148-.74.68-.813 1.668-1.297 2.311-2.15-.03-.113-.072-.263-.104-.375-1.23.69-1.23.69-1.633 1.072a18 18 0 01.144-.347l-.007-.105v-.004h.002l.003-.006c-3.677 1.533-7.131 6.647-6.942 7.162-.127.516-.433.953-.63 1.438.493-.145.938-.435 1.465-.485-.36 1.083-5.394 5.148-5.437 5.169.016-.12.04-.281.054-.4-.106-.006-.106-.006-1.261.635.062-.406.062-.406.578-1.035l.088-.218.004-.02.006-.016.002-.012.004-.015.002-.01.005-.015.004-.014c-.036.02-5.44 4.477-7.037 6.52.362-.167.362-.167.99-.702-.114.127-.266.3-.38.425-.024.018-2.119 1.938-2.013 2.855-.622.751-.622.751-.897 1.016.121-.231.298-.529.45-.743l-.29.262c.209-.398.209-.398.658-.948-.83.36-3.606 4.357-3.614 4.788 1.04-.381 1.544-1.385 2.355-2.028-.012.016-4.602 5.689-6.13 7.43.115.046.265.108.38.156.107-.058.251-.133.36-.19a7.295 7.295 0 01-.27.736l.107.137c-.537.773-.537.773-1.484 2.293l.196-.031.907-1.073.27-.204c.304-.314.567-.666.858-.993-.368.997-1.265 1.624-1.773 2.524.117-.034.273-.075.387-.109l.225-.18.214-.03c.294-.17.294-.17 1.005-.798-1.25 2.229-3.614 3.466-4.962 5.606a1.45 1.45 0 00-.675.321 3.322 3.322 0 00-.104 1.335c-.056-.412-.1-.825-.118-1.24-.385.361-.602.875-1.07 1.16-.114.072-.125.07-.187.067.01-.079.067-.135.098-.206-.294-.037-.327.265-.502.381-.112.075-.256.075-.37.144l-.031.019a.97.97 0 00-.123.116c-.343.35-.495.492-.63.475-.304.36-.481.823-.901 1.083.014-.106.075-.198.112-.298l-.035-.002c-.05-.133.172-.34-.005-.4-.002-.025-.002-.025.021-.11-.177-.004-1.055.954-1.309 1.304-.183.247-.268.32-.314.36l-.012-.077-.106.1-.044-.054.027-.071c-.212.156-.857 1.266-.91 1.564.205-.11.207-.398.434-.483l-.375.608.316-.346.007.031c.01-.004.01-.004 1.007-1.108.077.067.05.115-.017.21-.002.005-.325.484-.368.584.09.041.127-.004.212-.104a9.41 9.41 0 00-.083.32c-.213.36-.256.442-.302.536.164-.057.572-.606.79-.904l.142.035c.09-.112.177-.225.264-.34.042.44-.376.605-.549.917l.015.037.087.015c.08-.09.183-.21.26-.3l.262-.258.396-.208.07-.04c0 .067.044.127.021.196l.03.012.064-.041.008.04c.033-.024.033-.024.485-.534l.019.031.037-.004c.229-.291.323-.668.591-.937.004-.004.655-.502.926-.585l.07-.015c0 .038 0 .038-.053.14.127-.046.191-.175.306-.235l.027.023c.353-.082.389-.09 1.32-1.092l.05-.054.465-.63c.114.001.268.008.383.012.228-.221.611-.425.9-.55l.26-.21.313-.077.187-.123c.843-.063.995-1.154 1.825-1.237 2.097-1.487 3.19-3.978 5.374-5.377l.306-.36c1.113-1.267 2.72-1.816 4.045-2.774.048.108.11.254.156.364.643-.075.74-.127 1.147-.35-.369.856-1.276 1.314-1.61 2.197a1.203 1.203 0 00-.46-.556c.026-.227.147-.52.278-.708-1.336.069-6.011 5.44-6.49 6.137-.035.071-.033.073-.033.075l.002.002.002.009.002.004.004.008.007.013.004.014.006.015.008.019c.236.183.79.612 3.045-.76 2.819.882 2.67-3.37 4.927-3.884-.213.204-.495.477-.708.679-.152.202-.347.474-.489.683.115-.038.27-.088.385-.127.185.135.46.285.674.366-.075.485-.095.633-.56 1.545-.31.098-.31.098-.9.73l.304.253c-.1.23-.213.548-.271.79l.08.047c.538-.012.985-.327 1.491-.452-.816.573-.816.573-1.696 2.656.194.141.48.297.71.374l-.119.39c.1.114.233.266.335.38l.219-.035.201-.016.206.104c.084.202.134.502.125.72.127.021.3.048.429.071-.66 2.176-.66 2.176-.318 2.568.478-.258.518-.281 1.134-.364.043.23-.03.566-.148.768-3.669.604-.61 5.302-2.185 7.586.92.44 1.22-.004 1.38-.245l.168-.234h.002v.002c.375-.193.568-.583.887-.84-.45 2.523-.45 2.523-.385 2.598.65-.591.946-1.437 1.479-2.112-1.864 7.766-1.864 7.766-2.239 8.218a41.77 41.77 0 001.981 1.276 75.962 75.962 0 01-2.02-1.253.603.603 0 00-.335.435c-.071.42.083.833.05 1.251l-.456 1.787c-.02.048-.044.117-.058.169-.002.006-.123.498-.117.874v.077c0 .257-.193.459-.198.71-.006.236.304.365.2.627-.052.132-.18.14-.306.148-.42.027-.817.735-.892.875.002.004.343.425.763.216.233-.112.493.103.502.192l-.383 1.47c-.14.265-.464.269-.653.463-.038.04-.092.09-.115.135-.2.437.173.897-.06 1.333-.165.308-.296.329-.448.35-.066.01-.264.041-.576.79a2.211 2.211 0 00-.146.626c.071.064.175.045.252.1l-.012.045-.017.03-.048.085c-.073.16-.173.373-.245.535-.304.446-.464.737-.625 1.025l-.087.585h.05l.468-.096.01.006.021.013.03.016.033.02.035.018.033.02.032.017.023.013.114.6c-.25.235-.7.439-1.038.48-.177.344-.177.344-.167 2.966l-.002.019a6.511 6.511 0 001.011-.737l.308.53c-1.627 2.04-1.308 5.98-1.3 6.01.137.434.131.444.127.457l-.013.025-.01.018-.004.013-.004.004-.002.006v.002l.466.023.008-.006h.04l.505.375-.464.381-.295-.077-.025-.013c-.933.63-1.896 1.281-1.698 2.112l-.004.008c.174-.029.407-.066.58-.093-1.556 2.245-1.556 2.245-1.026 3.171l.009.004.143-.056c.056.196.069.53.244.635v.019l.545-.24c.123.136.287.317.41.455-.088.339-.31.772-.541 1.037.942 1.339.999 1.418 2.047 1.411h.021c-.1.38-.277.875-.447 1.227.118.133.28.306.401.437-.437 1.327-.437 1.327-.252 1.818.215.154.327.202.44.254l.328.177c-.216 1.308 1.442 2.635.106 3.9-.077.255-.062.261-.045.267-.02.808.645 1.502.39 2.345-.166.071-.39.167-.561.238-.017.193-.042.456-.058.651-1.659.525-2.008-.316-2.643-1.838l-.587-.105c-2.775 3.722-1.901 8.495-3.601 12.526-5.674 12.834-8.153 21.102-5.943 30.658.74.28 1.552.294 2.287.598-3.415.56-1.505 3.804-1.47 3.834-.07 3.027.933 5.937.993 8.95.335 2.393 2.849 3.23 3.725 5.237 1.81.381 3.156 4.888 2.884 6.627-.004.07 2.226 11.643 3.664 13.95l.485.585.611 1.025c1.195 2.828 1.195 2.828 1.184 4.242a3.438 3.438 0 01-.863.212l-.183-.452c-.82-.192-.82-.192-1.4-.119-.046.144-.109.331-.157.475.895.694 1.37 2.197 1.596 2.922.706.29.743.35 1.09.93 1.078 1.796 3.197 2.672 4.085 4.634.71 1.562-.651 3.197.17 4.754L99 295.764c1.24.864 1.531 4.359 3.227 3.101l.092-.668c-1.182-3.116-4.343-5.423-3.76-9.253-.754-.901-.754-.901-1.018-1.091a2.68 2.68 0 01.868-.391l-5.067-14.823c-.557-1.125-2.09-1.275-2.524-2.526-.761-2.21-.141-4.565-.695-6.795 2.468 1.449 2.468 1.449 2.855 1.405.333.438.412.54.874 1.754l.45-.013c.16 1.747.16 1.747-.05 2.574 2.032 3.898 1.417 8.984 5.37 12.018.245.648-.119 1.36.204 2l5.455 9.218c1.103.319 8.434 12.422 7.362 13.994 1.887 3.528.054 4.808.038 4.82.538 2.27 1.21 5.095 6.702 9.21.24.139.24.139.243.139h.008l.005.002h.004l.008.002h.004c3.908 2.301 3.908 2.301 8.86 6.345.533.313.786.365 1.042.417l.687.475c4.809 3.115 11.394 7.382 14.463 4.227 1.548.046 3.614 1.708 4.96 2.897a.946.946 0 00.922.724l.007.107c1.01.9 1.01.9 1.296.816 2.534 3.446 2.534 3.446 2.921 3.636 1.055.508 1.638 1.943 3.13 1.59.674-.157 1.585.326 1.897.571 2.818 1.691 2.818 1.691 8.307 2.972.156.06.158.06.162.063.152.045.354.11.505.156.473 1.689 2.148 2.538 2.824 4.081.68 1.552 3.693 1.398 3.2 3.622-.601 1.416-.214 3.888 3.313 4.881.152-.442.152-.442-.4-1.701.78.36.693 1.551 1.654 1.738.088.134.213.309.312.436.352.008.352.008 1.831.595.184.538.837.908.558 1.606.373.56.984.922 1.292 1.539.256-.009.508.023.76.016.02-.075.05-.177.073-.254.913-.16 1.585.542 2.367.848-1.5 1.485-1.456 4.467-4.41 4.535l-.09.84-.72.541c1.746 1.533 2.353 3.517 1.804 5.898.385.57.385.57 1.381 5.327-2.024 2.226-2.024 2.226-4.08 2.994-.14.875-.443 1.708-.62 2.574l.314.693c-1.292.109-1.292.109-3.762.723-.035.448.13 1.07.377 1.445l.243.573h-.004c-.227.152-.227.152-1.273 4.371l-.046.629h-.008l-.002-.002c.191.179.445.414.636.591l.007.779c.663.446 1.181 1.07 1.833 1.535.328-.346.649-.92.799-1.373.62 1.494.732 1.762-.51 2.67-2.707 1.285-2.707 1.285-.512 6.614-.116.194-.275.45-.391.646 18.208 21.52 18.957 22.007 20.768 23.183.884 1.691 8.4 5.192 8.47 5.217 4.257 1.514 4.257 1.514 8.55 4.869 1.184.924 3.97 15.868 3.933 15.964.312.585.312.585.778 5.318l-.063.071c.735 3.255 3.402 5.995 2.537 9.67l.52.613c-.252 1.208.048 2.514-.639 3.644.558.885 3.481 5.313 6.298 5.752 1.859 2.78 1.859 2.78 2.535 3.084l.13.75c.217.081.507.19.723.269-.019.229-.046.533-.067.762-.786-.098-1.541-.38-2.338-.433l.276.691c1.575-.152 2.86.78 4.293 1.156l-.776.029c.035.137.083.316.116.456.59.15.59.15 2.903 1.187l-.05.173h-.008l-.005-.002c1.646.5 8.238 1.757 8.273 1.761-.124-.085-.295-.195-.42-.277l.15-.025.558.005h.008l.006.002h.004l.002-.002c.448.162 1.055.356 1.515.487-.23-.01-.535-.019-.763-.031 1.598.277 6.163.491 6.181.491-1.976-.198-3.897-.768-5.89-.822-.231-.04-.537-.092-.768-.13.243 0 .566.005.805.009-1.924-.662-1.924-.662-2.137-.756.202-.106.475-.25.677-.358l-.283-.715a12.658 12.658 0 001.462-.374 5.455 5.455 0 01-1.034-1.067c-2.037-.166-2.157-.237-2.832-.972l.456-.64c.445-.07 1.04-.166 1.484-.243l.364-.681a24.199 24.199 0 01-.381-.254l.129-.217.497-.568c-.187-.15-.435-.354-.622-.508.472-.017 1.124.116 1.536.35l.485-.581c-3.074-1.45-3.074-1.45-3.076-1.466 1.492-.792 2.976.385 4.463.016-.145-.173-.345-.404-.493-.579.144-.198.337-.466.483-.664-.052-.242-.125-.562-.175-.802 3.14-2.124 10.593 1.46 10.37-3.736-1.034-.437-.984-1.597-1.556-2.34-2.022-.188-2.264-.454-2.85-1.104.322-1.985.322-1.985.503-2.247-.05-.27-.156-.64-.127-.912.187.46.62 1.543.158 3.165 4.428 2.797 12.164 1.837 14.002-2.974 5.31-2.17 11.92-8.606 9.442-11.847.212-.075.493-.172.707-.245-.079-.227-.18-.527-.258-.752.64-.348 1.371-.342 2.044-.558 2.634-1.924 2.634-1.924 7.58-2.64.033-.224.077-.517.108-.74 1.427-.242 1.427-.242 2.11-1 6.448-.283 6.818-.776 7.286-1.399l7.204-6.485c.322-1.103.503-2.245.905-3.33 3.308-1.482 4.068-10.26 3.39-11.449a7.626 7.626 0 011.55-.52l-.754-.334c11.155-5.37 13.384-11.593 14.859-15.712.085-.456.006-1.082-.01-1.545-.06-.09-.065-.091-.071-.09-.377-.843-.714-1.703-1.116-2.532.598-.308 1.211-.589 1.713-1.014-.185-1.095-.12-1.274 2.176-2.27.159.09.37.209.529.296a8.67 8.67 0 00.988-.683l.579.281c.437.196.643.223.849.256 1.242-.26 1.764-1.728 3.09-1.847 1.55-.14 2.663 1.258 4.194 1.187.165.059.17.059.18.06l.06.011.087.013.106.018.117.017.112.02.102.017.081.015.5.285c.12.498.37 1.131.572 1.6l.505.197c.733.615.733.615 3 1.062.17.03.394.067.562.094.113.346.258.806.37 1.15.831 1.813.178 4.269 2.377 5.489l.603.235c1.31.154 2.526.708 3.829.89l.345.74-.129.607.346.812.4.446-.113.641-.052.604.2.45c.135.14.316.32.451.46.98-.03.98-.03 1.804.412.083-.002 7.74-1.457 6.371-4.512 2.206-3.278 2.206-3.278 11.27-12.807 3.963-4.165 9.36-6.716 12.838-11.43-1.19.878-1.19.878-3.84 2.575.134-.668.134-.668 2.59-2.518-.652.138-1.322.284-2.525 1.5.025-.35.137-.877.41-1.11 3.134-2.664 5.747-4.888 7.747-9.648 1.593-.13 3.318-.04 5.326.323 2.35-1.652 5.081-2.622 7.453-4.228.007-.002 1.636-1.033 3.885-2.24 5.83-3.128 6.126-2.955 9.725-.82a19.612 19.612 0 01-.191 2.219c.216.233.506.537.722.766.372-.035.372-.035 7.05-2.353-.07.327-.16.756-.23 1.079.236.212.548.491.783.704.325-.046.76-.106 1.084-.15.285 1.772.474 2.942-1.178 5.14-5.064 8.469-5.064 8.469-2.184 18.16.04.558-.148 1.308-.344 1.83l-.016.04-.025.046-.025.054-.03.065-.033.066-.033.075-.037.077c-.015.03-.03.057-.319.683-1.835 9.973-1.835 9.973-16.065 25.82a120.49 120.49 0 01-1.261 1.75c-1.85 2.374-2.305 5.427-3.856 7.95-2.644 5.723-7.89 9.376-11.429 14.39-.033.046-3.475 4.515-7.953 6.887-2.434 2.024-2.434 2.024-2.752 2.38a14.58 14.58 0 001.845-.839c1.536-.743 3.015-1.601 4.597-2.253l.004-.002.091-.05a14.847 14.847 0 001.86-.852c.693-.269 1.282-.72 1.92-1.08l.242-.124c4.526-2.596 20.462-12.25 38.217-28.97l.25-.203h.058l.616-.524c3.01-2.697 8.052-7.214 16.431-16.689.042-.052.044-.054.046-.054 2.28-2.595 4.247-4.956 5.851-7.02l.027-.06.067-.115c1.034-1.268 1.034-1.268 3.61-4.708.994-1.287 2.659-3.434 5.676-7.835-.753.765-6.273 7.853-6.323 7.92l-.889 1.191c.202-.14.202-.14.585-.583-.312.498-.953 1.229-1.7 2.076l-1.149 1.416c-.355.556-2.677 3.322-5.534 6.562 5.888-7.01 11.635-14.779 16.901-23.317 3.04-4.517 3.213-4.819 18.531-32.16 4.792-9.004 10.306-23.46 13.407-35.15.28-1.067.287-1.1.618-2.7-.581 1.856-.581 1.856-1.45 4.067a43.38 43.38 0 01-.941 1.987l-.125.287-.169.298a62.763 62.763 0 01-1.283 2.464c-.21.43-.808.797-1.236 1.014.035-.319.08-.737.116-1.05l.008-.208c.07-2.032.546-4.027.585-6.066-.15-.787-.418-1.829-.739-2.564-.886-2.82-.07-5.687-.24-8.525-1.487-4.171.91-8.794-.731-12.945.116-.38.15-.42.272-.56-.054-.214-.293-.346-.268-.598.002-.035.046-.385.566-2.428-.454.413-1.084.623-1.396 1.202a9.529 9.529 0 00-.2.4c-1.178-6.014.474-12.59-3.593-18.024-.136-1.006-.298-2.347-.358-3.357.002.017.9 3.095 2.139 5.977l-.552-3.98c1.671 3.663 4.303 12.724 4.328 12.83l.306 2.828c-.052 1.129.015 1.897.108 2.928v.002l.002.002.002.002h.002v.005h.003l.029.337c-.26 1.145-.26 1.145-.745 1.42 1.171 1.668-1.132 3.811.738 5.383.516-.395.704-.629.889-1.224.408 2.184.938 4.354.568 6.616-.002.256.004.597.027.854-.052.324-.106.76-.144 1.089l-.195.908-.117 1.655c-.143 1.314-.143 1.314-.647 6.26 1.623-.323 5.123-10.002 5.15-10.1l.241-.879c.433-1.224 1-2.394 1.434-3.617.356-1.018.395-1.197.716-2.61.268-1.74.33-2.154.863-3.952l.054-.172.08-.138c.678-2.926.678-2.926 1.568-7.105.912-7.57 1.374-11.479 1.598-13.83.069-1.016.138-2.038.194-3.034.004-.291 0-.57-.006-.862l.012-.537v-.517c-.025-1.634-.025-1.634-.073-2.25l-.06.439c-.063-.19-.063-.19-.063-.186v.002l-.002.002v.007l-.002.004v.006l-.002.004c-.141-.67-.141-.67-.293-7.153-.219 3.278-.219 3.278-.246 3.565l-.066 1.314c-.4 4.415-.487 4.65-1.317 6.895-1.04-.991-1.003-2.043-.772-3.1-.104-.565-.308-1.692-.545-3.087.18-2.068.447-4.123.944-6.153.067.258.125.514.173.774.05 1.695-.042 3.395.258 5.075.12-.066.283-.15.406-.214.385-1.375.293-2.782.31-4.184a.97.97 0 00.189.167c.104-.38.208-1.004.302-1.635l.041.017c.146-.717.242-1.192.317-1.654.052.437.141 1.262.318 2.87.044-.14.104-.325.146-.467.179.017.183-.002.185-.023l.012-.07.01-.08.013-.08.01-.08.011-.069.006-.056.002-.033c.034-.127.075-.298.106-.427l.009.458c.006-.1.014-.233.018-.331.003-.052.003-.11.003-.169.008-.216.008-.425.008-.624v.216-.343z" fill-opacity=".1" fill="#8093AA"/></g></svg>