<svg width="63" height="63" xmlns="http://www.w3.org/2000/svg" xmlns:xlink="http://www.w3.org/1999/xlink"><defs><path id="a" d="M.025.045h13.222v29.764H.025z"/><path id="c" d="M.108.045H13.36v13.267H.108z"/></defs><g fill="none" fill-rule="evenodd"><path d="M62.859 40.846c-.219.135-.164.383-.213.575-.78 3.028-3.36 5.039-6.496 5.04-5.473.002-10.945.002-16.418 0-3.693-.002-6.639-2.938-6.638-6.608.002-3.673 2.944-6.607 6.635-6.609 5.43-.003 10.86 0 16.29 0 3.434 0 6.025 2.113 6.71 5.477.018.087.032.164.13.192v1.933z" fill="#FFF"/><g transform="translate(33.066 .084)"><mask id="b" fill="#fff"><use xlink:href="#a"/></mask><path d="M7.502.045c.54.171 1.093.31 1.618.519a6.55 6.55 0 014.12 6.062c.007 5.56.01 11.118 0 16.677-.007 3.587-2.985 6.508-6.604 6.506C3.022 29.808.038 26.881.03 23.301.02 17.786.027 12.27.029 6.754.029 3.483 2.224.82 5.443.179c.101-.02.22.004.255-.134h1.804z" fill="#FFF" mask="url(#b)"/></g><path d="M62.859 24.353c-.263.278-.243.66-.354.992-.92 2.73-3.408 4.543-6.28 4.548-1.993.003-3.988-.014-5.982.011-.485.007-.658-.094-.649-.623.035-1.993.013-3.988.014-5.982.002-3.456 2.562-6.255 6.036-6.6 3.32-.329 6.406 1.996 7.077 5.329.027.134-.049.312.138.392v1.933z" fill="#FFF"/><g transform="translate(16.404 .084)"><mask id="d" fill="#fff"><use xlink:href="#c"/></mask><path d="M7.671.045c.226.238.549.175.823.253a6.639 6.639 0 014.846 6.398c.003 1.954-.031 3.908.019 5.86.016.654-.195.767-.79.755-1.932-.039-3.864-.014-5.796-.015-3.501 0-6.285-2.555-6.635-6.085C-.186 3.944 2.162.854 5.472.184c.136-.028.312.043.395-.14h1.804z" fill="#FFF" mask="url(#d)"/></g><path d="M14.86 29.894c-2.748 0-5.496.003-8.244-.001C2.973 29.887.008 26.937 0 23.315a6.616 6.616 0 016.621-6.639c5.517-.006 11.034-.006 16.551 0 3.636.004 6.575 2.967 6.573 6.611-.002 3.644-2.94 6.599-6.577 6.606-2.77.005-5.54 0-8.308 0m14.885 18.232v8.18c-.003 3.723-2.956 6.695-6.64 6.682-3.656-.012-6.572-2.972-6.573-6.68-.002-5.475-.002-10.95 0-16.424.001-3.7 2.93-6.641 6.604-6.64 3.671.002 6.605 2.947 6.608 6.638.003 2.748 0 5.496 0 8.244M9.415 33.243l3.346.001c.229 0 .483-.061.473.326-.062 2.464.197 4.943-.12 7.391-.413 3.195-3.293 5.521-6.605 5.496-3.188-.024-5.972-2.45-6.415-5.588-.58-4.12 2.46-7.623 6.618-7.626h2.703m23.679 20.329v-3.346c0-.234-.048-.482.332-.472 2.464.061 4.942-.198 7.39.12 3.169.411 5.509 3.28 5.497 6.543-.012 3.203-2.409 6.007-5.53 6.47-4.147.616-7.686-2.428-7.689-6.612v-2.703" fill="#FFF"/></g></svg>