<svg width="100" height="41" xmlns="http://www.w3.org/2000/svg"><g fill="none"><path d="M3.438 31.556v8.609h1.908v-8.61H3.438zM0 27.87v1.838h8.886V27.87H0zm16.93 11.087h-.013c-.453.413-.976.74-1.546.967a5.435 5.435 0 01-4.594-.185 4.381 4.381 0 01-1.712-1.668 4.737 4.737 0 01-.615-2.416 5.098 5.098 0 01.648-2.645 4.492 4.492 0 011.722-1.686 4.78 4.78 0 012.336-.588 4.02 4.02 0 012.105.57 4.192 4.192 0 011.51 1.572 4.71 4.71 0 01.562 2.336l-.017.773h-7.06a2.96 2.96 0 001.028 1.976c.623.501 1.406.76 2.205.729.544.024 1.084-.1 1.563-.36.346-.204.675-.436.983-.693l.896 1.318zm-3.772-6.553a3.35 3.35 0 00-1.81.483 2.423 2.423 0 00-1.018 1.66h5.159v-.123a2.005 2.005 0 00-.396-1.053 2.406 2.406 0 00-1.935-.967zm11.309.492a2.262 2.262 0 00-.966-.212 2.338 2.338 0 00-1.107.288 2.496 2.496 0 00-.902.827 2.233 2.233 0 00-.36 1.274v5.093h-1.827v-9.22h1.823v1.74a3.39 3.39 0 011.168-1.389 2.833 2.833 0 011.643-.544c.342-.017.684.043 1 .176l-.472 1.967zm6.603-2.109c.65-.033 1.292.15 1.828.52.466.358.81.851.983 1.413.194-.33.437-.63.72-.887.328-.305.7-.558 1.107-.747a3.14 3.14 0 011.353-.3 2.968 2.968 0 011.862.518c.45.354.778.839.94 1.388.187.63.279 1.284.27 1.94v5.533h-1.825v-5.426a3.138 3.138 0 00-.387-1.654 1.57 1.57 0 00-1.458-.631 2.304 2.304 0 00-1.677.64 2.092 2.092 0 00-.659 1.555v5.515h-1.826v-5.458a2.857 2.857 0 00-.422-1.618c-.32-.44-.846-.68-1.388-.631a2.378 2.378 0 00-1.194.3 2.244 2.244 0 00-.827.782 2.01 2.01 0 00-.3 1.08v5.55h-1.824v-9.223h1.827v1.475a4.06 4.06 0 011.186-1.133 3.05 3.05 0 011.712-.5zm12.7-1.844a1.203 1.203 0 01-.913-.316 1.151 1.151 0 01-.3-.827c0-.29.107-.571.3-.788.236-.25.572-.38.914-.352a1.2 1.2 0 01.912.315c.206.225.315.523.301.828 0 .291-.106.573-.3.79a1.133 1.133 0 01-.914.35zm.93 11.224h-1.809v-9.22h1.81v9.22zm7.571-9.414a3.191 3.191 0 011.932.509c.458.342.794.823.958 1.37a6.34 6.34 0 01.272 1.915v5.62h-1.81v-5.495a3.75 3.75 0 00-.176-1.194 1.597 1.597 0 00-.597-.827 1.783 1.783 0 00-1.176-.245 2.556 2.556 0 00-1.248.3 2.33 2.33 0 00-.86.791c-.21.324-.32.703-.316 1.089v5.585h-1.806v-9.225h1.804v1.458c.32-.47.74-.863 1.229-1.151a3.348 3.348 0 011.794-.5zm11.909 5.743v-5.55h1.809v9.221h-1.81v-1.475c-.304.467-.709.86-1.185 1.15a3.402 3.402 0 01-1.871.501 3.008 3.008 0 01-2.336-.983 3.895 3.895 0 01-.892-2.724v-5.69h1.804v5.199c-.005.443.07.883.219 1.3.134.382.38.715.703.957.362.252.797.379 1.238.36.6.012 1.183-.201 1.633-.598a2.094 2.094 0 00.688-1.668zm9.66-3.126a4.329 4.329 0 00-1.116-.804 2.562 2.562 0 00-1.15-.317c-.245 0-.49.03-.729.089a1.306 1.306 0 00-.606.324.923.923 0 00-.246.695c-.01.387.217.74.572.894.443.203.905.362 1.379.475.478.129.948.29 1.404.483.442.182.832.472 1.133.844.325.45.485.999.451 1.553a2.314 2.314 0 01-.483 1.475 3.094 3.094 0 01-1.247.941 4.081 4.081 0 01-1.607.325 5.67 5.67 0 01-1.976-.36 3.717 3.717 0 01-1.66-1.239l1.229-1.052c.302.35.67.64 1.081.852.464.217.972.323 1.484.307.227 0 .453-.04.667-.114.219-.073.415-.2.571-.37a.977.977 0 00.238-.694.85.85 0 00-.256-.657 1.903 1.903 0 00-.677-.387 9.458 9.458 0 00-.93-.273 12.323 12.323 0 01-1.485-.518 3.177 3.177 0 01-1.212-.878 2.33 2.33 0 01-.482-1.555 2.21 2.21 0 01.465-1.414 3.083 3.083 0 011.22-.913 4.06 4.06 0 011.617-.325 5.25 5.25 0 011.791.352 3.63 3.63 0 011.599 1.124l-1.04 1.137zm9.1-5.498a6.06 6.06 0 012.502.484c.694.302 1.31.758 1.8 1.334.487.58.857 1.247 1.09 1.967a7.49 7.49 0 01.368 2.362 7.218 7.218 0 01-.65 3.083 5.257 5.257 0 01-1.931 2.23 5.714 5.714 0 01-3.18.834h-4.812V27.872h4.812zm-.09 10.468a3.91 3.91 0 002.248-.587 3.459 3.459 0 001.266-1.572 5.94 5.94 0 000-4.305 3.512 3.512 0 00-1.266-1.579 3.868 3.868 0 00-2.248-.596h-2.828v8.64h2.828zm12.624-10.468c.968-.07 1.929.21 2.706.791.636.59.972 1.435.914 2.3.008.52-.128 1.03-.396 1.476-.28.448-.686.802-1.167 1.018.391.132.757.331 1.08.59.341.273.62.617.817 1.008.223.466.331.978.316 1.494a3.792 3.792 0 01-.369 1.774 2.976 2.976 0 01-.966 1.107c-.4.27-.847.464-1.317.571-.473.11-.956.165-1.44.166h-5.305V27.872h5.127zm-.317 1.827h-2.915v3.267h3.126a2.124 2.124 0 001.273-.44c.37-.282.577-.73.554-1.194a1.377 1.377 0 00-.588-1.255 2.632 2.632 0 00-1.45-.378zm.3 5.094h-3.213v3.547h3.302a2.765 2.765 0 001.634-.447c.432-.322.67-.842.631-1.38a1.402 1.402 0 00-.368-1.036 2.077 2.077 0 00-.902-.526 3.77 3.77 0 00-1.085-.158h.002z" fill="#002855"/><path d="M27.305 7.716a8.36 8.36 0 01-7.067 12.88 8.282 8.282 0 01-4.5-1.31.641.641 0 01-.301-.427.653.653 0 01.093-.51.641.641 0 01.422-.292.654.654 0 01.509.088 7.022 7.022 0 009.7-9.7.677.677 0 01.198-.936.668.668 0 01.51-.088c.18.033.338.14.436.295z" fill="#00C08B"/><path d="M30.419 18.935a.66.66 0 01-.563.304.705.705 0 01-.376-.11.686.686 0 01-.193-.943A10.814 10.814 0 0014.701 2.958a1.223 1.223 0 11-.726-1.146A12.17 12.17 0 0130.42 18.935z" fill="#00C08B"/><path d="M15.296 7.277a7.056 7.056 0 00-.948 8.748.68.68 0 01-.204.936.686.686 0 01-.936-.205 8.374 8.374 0 0111.654-11.51.677.677 0 01-.743 1.127 7.041 7.041 0 00-8.823.904z" fill="#00C08B"/><path d="M20.26 10.098a2.142 2.142 0 10-.013 4.284 2.142 2.142 0 00.012-4.284zm0 2.926a.787.787 0 11-.007-1.574.787.787 0 01.006 1.574z" fill="#00C08B"/><path d="M28.212 21.527a1.219 1.219 0 01-1.676 1.136 12.03 12.03 0 01-6.25 1.729A12.156 12.156 0 0110.012 5.668a.637.637 0 01.427-.293.668.668 0 01.802.515c.04.176.006.36-.094.51a10.819 10.819 0 0014.62 15.145v-.018a1.223 1.223 0 112.445 0z" fill="#00C08B"/></g></svg>