<svg width="161" height="115" xmlns="http://www.w3.org/2000/svg"><g fill="#00C08B" fill-rule="evenodd" opacity=".3"><path d="M-155.002 96.33c1.583 0 2.93.987 3.475 2.378h90.408l20.84-20.84h149.707l48.91-48.91-50.672-50.672H12.25l-37.289-37.29a3.701 3.701 0 01-1.976.578 3.74 3.74 0 113.74-3.741 3.7 3.7 0 01-.577 1.976l36.797 36.798h95.418l52.349 52.35-50.59 50.59H-39.582l-20.84 20.84h-90.869c-.164 1.916-1.752 3.423-3.71 3.423a3.74 3.74 0 010-7.48"/><path d="M-155.002 79.54a3.742 3.742 0 013.64 2.903h89.827l17.734-17.733H71.617l22.165-22.166V20.69L65.472-7.621H5.203l-51.379-51.383a3.701 3.701 0 01-1.976.578 3.74 3.74 0 113.74-3.741 3.7 3.7 0 01-.577 1.976L5.9-9.301h60.266l29.295 29.296V43.24l-23.15 23.149H-43.105L-60.84 84.122h-90.524a3.736 3.736 0 01-7.378-.843 3.74 3.74 0 013.74-3.74m-41.258 37.524a3.736 3.736 0 013.64 2.903h53.134l12.843-12.847h85.268l13.933 13.935h18.16L8.803 102.97h69.524a3.736 3.736 0 013.637-2.898 3.74 3.74 0 110 7.477 3.735 3.735 0 01-3.637-2.9H9.498l-18.084 18.084h-19.551l-13.933-13.935h-83.878l-12.843 12.847h-53.831a3.738 3.738 0 11-3.639-4.582"/><path d="M-58.826 17.39a3.74 3.74 0 013.742 3.74 3.69 3.69 0 01-.44 1.721l30.88 30.883h89.046l14.4-14.401a3.697 3.697 0 01-.578-1.976 3.737 3.737 0 013.74-3.74 3.74 3.74 0 110 7.477c-.727 0-1.4-.216-1.975-.574L65.097 55.413h-90.436l-31.28-31.279a3.716 3.716 0 01-2.207.734 3.738 3.738 0 110-7.477M98.987.921a3.703 3.703 0 01-1.978.578 3.737 3.737 0 01-3.738-3.74 3.736 3.736 0 013.738-3.737 3.74 3.74 0 013.742 3.738c0 .729-.216 1.4-.577 1.978l25.255 25.255v16.21l-21.909 21.91c.36.574.576 1.245.576 1.974a3.74 3.74 0 01-3.743 3.738 3.736 3.736 0 01-3.737-3.738 3.737 3.737 0 013.737-3.74 3.7 3.7 0 011.978.578l21.419-21.418v-14.82L98.987.922z"/><path d="M-36.149-16.65a3.74 3.74 0 013.743 3.74c0 .727-.217 1.4-.578 1.973L-11.66 10.39-.914-.358h64.208l10.57 10.567v15.813l-20.15 20.152H3.07a3.736 3.736 0 01-3.639 2.9 3.737 3.737 0 01-3.637-2.9h-.1v-1.679h.1a3.737 3.737 0 013.637-2.9 3.736 3.736 0 013.639 2.9h49.945l19.169-19.168V10.904L62.599 1.32H-.22l-11.44 11.443L-34.172-9.75a3.703 3.703 0 01-1.978.577 3.738 3.738 0 110-7.477"/></g></svg>