<svg width="197" height="192" xmlns="http://www.w3.org/2000/svg" xmlns:xlink="http://www.w3.org/1999/xlink"><defs><path id="a" d="M0 .014h348.641v280.522H0z"/></defs><g fill="none" fill-rule="evenodd" opacity=".2"><g transform="rotate(90 143.735 -88.997)"><mask id="b" fill="#fff"><use xlink:href="#a"/></mask><path d="M329.97 177.084H213.715l-54.592-54.592V85.57h77.6l20.489-20.49V26.22L233.999 3.003h-73.2a3.853 3.853 0 00-3.75-2.99 3.859 3.859 0 00-3.86 3.854 3.86 3.86 0 003.86 3.86 3.854 3.854 0 003.749-2.992h72.484l22.198 22.2v37.428l-19.474 19.475H157.39v39.37l55.607 55.607h116.255l17.656 17.655v44.09l-38.243 38.244H110.782L35.7 203.726H4.722v-63.792a3.855 3.855 0 00-.862-7.611A3.86 3.86 0 000 136.179a3.856 3.856 0 002.99 3.755v65.524h31.992l75.083 75.078h199.318l39.258-39.258v-45.524l-18.671-18.67z" fill="#FFF" mask="url(#b)"/></g><path d="M63.074 92.468a3.82 3.82 0 00-.596-2.04l49.6-49.598h76.581a3.851 3.851 0 003.753 2.99 3.856 3.856 0 003.856-3.854 3.86 3.86 0 00-3.856-3.86 3.857 3.857 0 00-3.753 2.992h-77.298L61.254 89.203a3.807 3.807 0 00-2.037-.595 3.858 3.858 0 103.857 3.86" fill="#FFF"/><path d="M13.248 121.101a3.856 3.856 0 00-2.991-3.754V78.47L84.225 4.5h66.127a3.854 3.854 0 003.753 2.992 3.857 3.857 0 000-7.716 3.86 3.86 0 00-3.753 2.992H83.508L8.525 77.752v39.597a3.856 3.856 0 00-2.992 3.752 3.858 3.858 0 007.715 0M-5.625 152.24h66.842l79.04-79.042c.594.37 1.289.594 2.04.594a3.856 3.856 0 003.857-3.855 3.86 3.86 0 00-3.857-3.86 3.86 3.86 0 00-3.858 3.86c0 .75.223 1.446.594 2.037L60.5 150.508H-5.629a3.853 3.853 0 00-3.747-2.992c-2.13 0-3.86 1.73-3.86 3.86a3.86 3.86 0 003.86 3.857c1.83 0 3.354-1.28 3.75-2.993" fill="#FFF"/><path d="M95.978 172.185a3.856 3.856 0 100-7.715 3.856 3.856 0 00-3.753 2.991H-93.27l52.06-52.059V-29.422l-21.823-21.821a3.817 3.817 0 00.596-2.038 3.86 3.86 0 00-3.856-3.86 3.856 3.856 0 100 7.715 3.84 3.84 0 002.036-.593l21.316 21.314v143.39l-54.51 54.508H92.226a3.851 3.851 0 003.753 2.992" fill="#FFF"/><path d="M66.46 191.56a3.856 3.856 0 100-7.714 3.854 3.854 0 00-3.751 2.99h-194.244v-49.352l45.369-45.369V-3.513a3.85 3.85 0 002.989-3.75 3.859 3.859 0 00-3.855-3.86 3.86 3.86 0 00-3.86 3.86 3.855 3.855 0 002.994 3.75v94.911l-45.369 45.37v51.8H62.707a3.853 3.853 0 003.753 2.992M32.242 95.056l10.444-10.444V62.245H71.1V42.01l18.657-18.654h27.636a3.852 3.852 0 007.608-.864 3.858 3.858 0 00-3.857-3.86 3.852 3.852 0 00-3.749 2.992H89.04L69.368 41.292v19.222H40.954v23.381l-9.936 9.937a3.807 3.807 0 00-2.037-.596 3.858 3.858 0 00-3.855 3.86 3.855 3.855 0 107.712 0c0-.752-.224-1.446-.596-2.04zm10.224 30.194c0-.752-.224-1.446-.594-2.04l13.845-13.845h24.322l43.736-43.736a3.819 3.819 0 002.04.596 3.854 3.854 0 003.854-3.857 3.856 3.856 0 10-7.71 0c0 .75.223 1.444.591 2.037l-43.228 43.228H55l-14.352 14.353a3.807 3.807 0 00-2.037-.596 3.858 3.858 0 000 7.716 3.855 3.855 0 003.855-3.856" fill="#FFF"/><path d="M-36.481 140.969c0-.752-.224-1.446-.596-2.038l13.327-13.324V76.089L3.497 48.842c.592.37 1.288.594 2.04.594a3.855 3.855 0 003.854-3.857c0-2.13-1.724-3.86-3.854-3.86a3.858 3.858 0 00-3.857 3.86c0 .752.224 1.445.592 2.037l-27.754 27.756v49.518l-12.816 12.815a3.828 3.828 0 00-2.04-.596 3.858 3.858 0 00-3.855 3.86 3.855 3.855 0 107.712 0" fill="#FFF"/></g></svg>