<svg width="263" height="84" xmlns="http://www.w3.org/2000/svg" xmlns:xlink="http://www.w3.org/1999/xlink"><defs><path id="a" d="M.653.391h93.268v167.142H.653z"/><path id="c" d="M.602.087H88.76v143.538H.602z"/></defs><g fill="none" fill-rule="evenodd" opacity=".2"><path d="M97.986 58.929c-1.907 0-3.496 1.34-3.905 3.132H-.198v-84.237l40.72-40.927v-43.014a4.022 4.022 0 002.869-3.85c0-2.225-1.795-4.033-4.014-4.033-2.217 0-4.015 1.808-4.015 4.033a4.024 4.024 0 003.357 3.97v42.144L-2-22.926v86.8h96.08c.413 1.789 2 3.126 3.906 3.126 2.217 0 4.014-1.808 4.014-4.036 0-2.227-1.797-4.035-4.014-4.035M205.837 5.952c-.811 0-1.562.233-2.202.621L150.1-45.17v-79.89c1.849-.412 3.228-2.006 3.228-3.917 0-2.218-1.861-4.023-4.16-4.023-2.302 0-4.167 1.805-4.167 4.023 0 1.911 1.381 3.503 3.23 3.915v80.64l54.084 52.273a3.875 3.875 0 00-.643 2.124c0 2.222 1.867 4.025 4.166 4.025 2.3 0 4.163-1.803 4.163-4.025 0-2.22-1.864-4.023-4.163-4.023" fill="#0055B8"/><path d="M233.964 57.952a4.036 4.036 0 00-3.928 3.124H189.35l-77.406-77.16v-68.98a4.02 4.02 0 003.131-3.915A4.03 4.03 0 00111.039-93C108.81-93 107-91.197 107-88.979c0 1.911 1.341 3.503 3.131 3.915v69.729l78.47 78.217h41.436A4.03 4.03 0 00233.964 66 4.03 4.03 0 00238 61.975a4.03 4.03 0 00-4.036-4.023" fill="#0055B8"/><g transform="translate(176 -83)"><mask id="b" fill="#fff"><use xlink:href="#a"/></mask><path d="M90.79 159.553V89.46L8.104 6.574a4.037 4.037 0 00.621-2.14A4.038 4.038 0 004.691.39 4.042 4.042 0 00.653 4.433a4.043 4.043 0 004.038 4.048 3.99 3.99 0 002.13-.623L88.98 90.211v69.342a4.043 4.043 0 00.908 7.981 4.042 4.042 0 004.034-4.047 4.038 4.038 0 00-3.13-3.934" fill="#0055B8" mask="url(#b)"/></g><g transform="translate(14 -139)"><mask id="d" fill="#fff"><use xlink:href="#c"/></mask><path d="M88.76 4.132c0-2.235-1.8-4.046-4.024-4.046-2.222 0-4.026 1.811-4.026 4.046a4.04 4.04 0 003.123 3.936v91.464L44.909 138.67H8.539a4.018 4.018 0 00-3.911-3.136c-2.223 0-4.026 1.81-4.026 4.045 0 2.236 1.803 4.046 4.026 4.046 1.912 0 3.504-1.341 3.912-3.138h37.117l39.983-40.203V8.068a4.034 4.034 0 003.12-3.936" fill="#0055B8" mask="url(#d)"/></g><path d="M76.967 37.745c-2.194 0-3.97 1.792-4.027 4.026H26.496l-10.548-10.8a4.149 4.149 0 001.12-2.842c0-2.28-1.804-4.129-4.033-4.129C10.807 24 9 25.848 9 28.129c0 2.28 1.807 4.126 4.035 4.126.478 0 .93-.098 1.356-.257l11.355 11.627h47.58C73.972 45.027 75.352 46 76.967 46 79.195 46 81 44.154 81 41.873c0-2.282-1.805-4.128-4.033-4.128m133.004.225c-.785 0-1.51.233-2.13.617L196.93 27.715h-23.367V-1.872h-21.14l-19.488-19.427v-28.778c1.79-.41 3.126-2.001 3.126-3.905A4.023 4.023 0 00132.032-58 4.024 4.024 0 00128-53.982c0 1.904 1.339 3.492 3.126 3.903v29.526L151.674-.068h20.08v29.587h24.427l10.38 10.343a3.967 3.967 0 00-.622 2.124c0 2.218 1.807 4.014 4.032 4.014A4.02 4.02 0 00214 41.986a4.021 4.021 0 00-4.029-4.016m29.987-12.013c-.788 0-1.516.233-2.139.618l-14.512-14.44v-25.367l-45.845-45.62c.39-.616.625-1.343.625-2.126A4.03 4.03 0 00174.044-65c-2.232 0-4.044 1.799-4.044 4.022 0 2.222 1.812 4.021 4.044 4.021.786 0 1.514-.233 2.135-.618l45.313 45.09v25.369l15.044 14.968a3.969 3.969 0 00-.625 2.127c0 2.222 1.814 4.021 4.047 4.021 2.232 0 4.042-1.799 4.042-4.02 0-2.224-1.81-4.023-4.042-4.023" fill="#0055B8"/></g></svg>