<svg width="203" height="216" xmlns="http://www.w3.org/2000/svg"><g fill="#00C08B" fill-rule="evenodd" opacity=".3"><path d="M174.278 169.22a3.834 3.834 0 012.446-3.567V72.846L155.29 51.452v-153.679l-50.3-50.207-52.112 52.015V-2.47L14.527 35.808c.37.59.594 1.283.594 2.029a3.842 3.842 0 01-3.848 3.838 3.842 3.842 0 01-3.845-3.838c0-2.12 1.723-3.84 3.845-3.84a3.81 3.81 0 012.033.593L51.15-3.184v-97.95l53.839-53.738 52.027 51.932V50.738l21.433 21.394v93.28c1.97.168 3.521 1.799 3.521 3.809a3.843 3.843 0 01-3.847 3.838 3.843 3.843 0 01-3.846-3.838"/><path d="M156.527 169.591a3.848 3.848 0 012.984-3.744V73.464l-18.224-18.24V-63.477l-22.78-22.796h-22.46L66.95-57.158V4.825L14.144 57.666c.37.591.593 1.285.593 2.033a3.845 3.845 0 11-7.687 0 3.847 3.847 0 013.843-3.847c.747 0 1.44.222 2.03.594L65.226 4.11v-61.983L95.332-88h23.89l23.79 23.808V54.51l18.224 18.239v93.1a3.842 3.842 0 012.979 3.742 3.846 3.846 0 01-3.845 3.846 3.845 3.845 0 01-3.843-3.846M.627 15.064a3.862 3.862 0 013.868-3.856 3.83 3.83 0 012.043.595L17.545.838V-93.78l21.28-21.2a3.82 3.82 0 01-.595-2.035 3.86 3.86 0 013.868-3.855 3.86 3.86 0 013.865 3.855 3.857 3.857 0 01-5.91 3.259L19.28-93.064V1.554L7.766 13.026c.37.593.594 1.287.594 2.038a3.858 3.858 0 01-3.865 3.852 3.859 3.859 0 01-3.868-3.852m194.503 196.84a3.835 3.835 0 012.96-3.745v-54.664l-13.093-13.213V52.56l14.201-14.334V19.542L180.77.938v-71.524a3.835 3.835 0 01-2.953-3.742c0-2.126 1.704-3.85 3.809-3.85 2.106 0 3.81 1.724 3.81 3.85a3.835 3.835 0 01-2.955 3.742V.224l18.43 18.603v20.114L186.71 53.275v86.292l13.09 13.213v55.38a3.833 3.833 0 012.95 3.744c0 2.124-1.704 3.847-3.809 3.847-2.106 0-3.81-1.723-3.81-3.847"/><path d="M92.433 70.604a3.858 3.858 0 013.864-3.853 3.82 3.82 0 011.778.453l31.914-31.788v-91.665l-14.882-14.824a3.83 3.83 0 01-2.042.595 3.854 3.854 0 01-3.864-3.85 3.857 3.857 0 013.864-3.85 3.857 3.857 0 013.862 3.85c0 .75-.224 1.442-.593 2.033l15.39 15.33v93.097L99.401 68.33c.47.638.758 1.419.758 2.273a3.855 3.855 0 01-3.862 3.85 3.855 3.855 0 01-3.864-3.85"/><path d="M58.43 47.18c0-2.127 1.712-3.854 3.827-3.854.744 0 1.433.223 2.018.595l21.823-21.955L75.1 10.902v-66.108L85.912-66.09h16.18l20.62 20.747V6.8a3.841 3.841 0 012.967 3.746c0 1.828-1.27 3.35-2.967 3.745v.104h-1.718v-.104a3.842 3.842 0 01-2.967-3.745 3.841 3.841 0 012.967-3.746v-51.423L101.381-64.36H86.623l-9.804 9.87v64.676l11.708 11.78L65.49 45.143a3.83 3.83 0 01.591 2.037c0 2.126-1.711 3.85-3.824 3.85-2.115 0-3.826-1.724-3.826-3.85"/></g></svg>